<?xml version="1.0" encoding="UTF-8" standalone="no"?>
<svg
  xmlns:dc="http://purl.org/dc/elements/1.1/"
  xmlns:cc="http://creativecommons.org/ns#"
  xmlns:rdf="http://www.w3.org/1999/02/22-rdf-syntax-ns#"
  xmlns:svg="http://www.w3.org/2000/svg"
  xmlns="http://www.w3.org/2000/svg"
  version="1.1"
  viewBox="0 0 346.06668 145.20103"
  stroke-miterlimit="10"
  id="svg32"
  width="346.06668"
  height="145.20103"
  style="fill:none;stroke:none;stroke-linecap:square;stroke-miterlimit:10">
  <metadata id="metadata38">
    <rdf:RDF>
      <cc:Work rdf:about="">
        <dc:format>image/svg+xml</dc:format>
        <dc:type rdf:resource="http://purl.org/dc/dcmitype/StillImage"/>
        <dc:title></dc:title>
      </cc:Work>
    </rdf:RDF>
  </metadata>
  <style id="style3" type="text/css">
    .text {
      fill: #221f3a;
      fill-rule: nonzero;
    }
    .k-black {
      fill: #221f3a;
      stroke-width: 0.35038862;
    }
    .k-blue {
      fill: #25a4f2;
      stroke-width: 0.35038862;
    }
  </style>
  <g id="logo">
    <path d="M 74.422544,8.339249 H 34.162889 V 48.598895 H 74.387504 L 54.275195,28.486594 c 0,-0.03504 20.147349,-20.813083 20.147349,-20.147345 z" class="k-black"/>
    <path d="M 119.30732,28.451555 90.855764,0 l -28.45155,28.451555 28.45155,28.45155 v -28.45155 c 0,0 28.942096,-0.455505 28.451556,0 z" class="k-blue"/>
    <path d="M 136.82675,74.422545 V 34.197929 H 96.602144 v 40.224616 l 20.112296,-20.11231 c 0,0 20.77805,20.11231 20.11231,20.11231 z" class="k-blue"/>
    <path d="M 116.71444,119.34235 145.166,90.890805 116.71444,62.439245 88.262894,90.890805 h 28.451546 c 0,0 0.45551,28.907065 0,28.451545 z" class="k-blue"/>
    <path d="M 70.743464,136.86179 H 110.96807 V 96.602135 H 70.743464 l 20.1123,20.112315 c 0,0.035 -20.1123,20.81308 -20.1123,20.14734 z" class="k-blue"/>
    <path d="M 25.82364,116.74948 54.275195,145.20103 82.726754,116.74948 54.275195,88.297925 v 28.451555 c 0.03504,0 -28.90706,0.4555 -28.451555,0 z" class="k-blue"/>
    <path d="M 8.30421,70.778495 V 111.00312 H 48.563861 V 70.778495 l -20.112306,20.11231 c 0,0 -20.813084,-20.11231 -20.147345,-20.11231 z" class="k-blue"/>
    <path d="M 28.451555,25.85868 0,54.310235 28.451555,82.761785 56.90311,54.310235 H 28.451555 c 0,0 -0.490544,-28.90706 0,-28.451555 z" class="k-blue"/>
  </g>
  <path
    d="m 191.33876,46.598525 -10.78125,-14.234375 -2.76563,3.296875 v 10.9375 h -7.57812 v -35.5625 h 7.57812 V 26.92665 l 12.57813,-15.890625 h 9.34375 l -14.14063,16.6875 15.09375,18.875 z m 24.58849,0.640625 c -3.98957,0 -7.25519,-1.28125 -9.79686,-3.84375 -2.54166,-2.5625 -3.8125,-5.796875 -3.8125,-9.703125 0,-3.90625 1.27084,-7.130208 3.8125,-9.671875 2.54167,-2.541667 5.80729,-3.8125 9.79686,-3.8125 3.97917,0 7.24479,1.270833 9.79687,3.8125 2.5625,2.541667 3.84375,5.765625 3.84375,9.671875 0,3.947917 -1.28125,7.192708 -3.84375,9.734375 -2.55208,2.541667 -5.8177,3.8125 -9.79687,3.8125 z m 0,-6.03125 c 1.94792,0 3.53646,-0.697917 4.76562,-2.09375 1.22917,-1.40625 1.84375,-3.213542 1.84375,-5.421875 0,-2.135417 -0.61458,-3.911458 -1.84375,-5.328125 -1.22916,-1.427083 -2.8177,-2.140625 -4.76562,-2.140625 -1.8854,0 -3.45311,0.6875 -4.70311,2.0625 -1.23958,1.364583 -1.85938,3.166667 -1.85938,5.40625 0,2.270833 0.6198,4.09375 1.85938,5.46875 1.25,1.364583 2.81771,2.046875 4.70311,2.046875 z m 27.29779,6.03125 c -4.875,0 -7.3125,-2.348958 -7.3125,-7.046875 v -13.4375 h -4.26563 v -5.90625 h 4.26563 V 13.80165 h 6.82812 v 7.046875 h 5.23438 v 5.90625 h -5.23438 v 11.625 c 0,0.822917 0.20313,1.5 0.60938,2.03125 0.41667,0.53125 0.99479,0.796875 1.73437,0.796875 1.07292,0 1.85938,-0.244792 2.35938,-0.734375 l 1.4375,5.109375 c -1.17708,1.104167 -3.0625,1.65625 -5.65625,1.65625 z m 9.38424,-0.640625 v -35.5625 h 6.76563 v 35.5625 z m 16.85138,-28.53125 c -1.10416,0 -2.05729,-0.390625 -2.85937,-1.171875 -0.79166,-0.78125 -1.1875,-1.739583 -1.1875,-2.875 0,-1.145833 0.39584,-2.098958 1.1875,-2.859375 0.80208,-0.760417 1.75521,-1.140625 2.85937,-1.140625 1.13542,0 2.09376,0.380208 2.875,1.140625 0.78126,0.760417 1.17188,1.713542 1.17188,2.859375 0,1.135417 -0.39062,2.09375 -1.17188,2.875 -0.78124,0.78125 -1.73958,1.171875 -2.875,1.171875 z m -3.35937,28.53125 v -25.75 h 6.76562 v 25.75 z m 30.8826,0 V 31.0204 c 0,-3.197917 -1.58333,-4.796875 -4.75,-4.796875 -2.45833,0 -4.41666,1.015625 -5.875,3.046875 v 17.328125 h -6.76563 v -25.75 h 6.76563 V 24.2079 c 0.82292,-1 1.99479,-1.916667 3.51562,-2.75 1.53126,-0.833333 3.36459,-1.25 5.5,-1.25 2.84376,0 4.94792,0.739583 6.3125,2.21875 1.375,1.46875 2.0625,3.463542 2.0625,5.984375 v 18.1875 z"
    class="text"
    id="kotlin"/>
  <path
    d="m 168.51004,57.437865 v 35.5625 h 19.30078 c 6.82453,0 10.34375,-4.26542 10.34375,-9.6504 0,-4.42529 -2.98542,-8.10296 -6.82422,-8.68945 3.35895,-0.69311 6.13086,-3.73292 6.13086,-8.1582 0,-4.74519 -3.46512,-9.06446 -10.23633,-9.06445 z m 64.61132,0 v 35.5625 h 6.77149 v -35.5625 z m -57.03906,6.66406 h 9.49024 c 2.5592,0 4.1582,1.54644 4.1582,3.73242 0,2.29262 -1.599,3.73242 -4.1582,3.73242 h -9.49024 z m 39.2461,2.50781 c -7.78423,0 -13.32813,6.02395 -13.32813,13.48828 0,8.26408 5.91637,13.54297 13.75391,13.54297 3.99875,0 8.05213,-1.22634 10.61133,-3.57227 l -3.03907,-4.47851 c -1.65281,1.5995 -4.63823,2.50586 -6.82422,2.50586 -4.37196,0 -6.93225,-2.61409 -7.4121,-5.75977 h 19.14062 v -1.59765 c 0,-8.37071 -5.17143,-14.12891 -12.90234,-14.12891 z m 42.31445,0 c -4.05207,0 -8.10431,1.225 -11.25,4.05078 l 2.66601,4.74609 c 2.13266,-1.97271 4.69101,-3.03906 7.41016,-3.03906 3.41226,0 5.65234,1.70585 5.65234,4.31836 v 3.25196 c -1.70612,-2.02603 -4.69262,-3.14649 -8.1582,-3.14649 -4.10538,0 -8.90234,2.24027 -8.90234,8.31836 0,5.7582 4.79696,8.53125 8.90234,8.53125 3.35895,0 6.39875,-1.22672 8.1582,-3.35938 v 2.71876 h 6.82422 v -16.63477 c 0,-7.41102 -5.38459,-9.75586 -11.30273,-9.75586 z m 32.94727,0 c -3.19901,0 -6.34486,1.86422 -8.21094,4.10352 v -3.46485 h -6.76953 v 25.75196 h 6.76953 v -17.00782 c 1.11965,-1.65282 4.1064,-2.93164 6.3457,-2.93164 0.79975,0 1.38538,0.0515 1.86524,0.1582 z m 44.22656,0 c -6.82453,0 -10.55664,3.78487 -10.55664,8.10352 0,10.13016 15.24804,6.66494 15.24804,10.87695 0,1.5995 -1.38595,2.71875 -4.31836,2.71875 -3.199,0 -6.98489,-1.75951 -8.90429,-3.57227 l -2.93164,4.9043 c 2.71915,2.50588 7.03702,4 11.51562,4 7.14443,0 11.19727,-3.46575 11.19727,-8.21094 0,-10.39674 -15.30274,-7.19889 -15.30274,-10.98437 0,-1.43955 1.60018,-2.50586 4.05274,-2.50586 3.14568,0 6.07882,1.38683 7.625,2.98633 l 2.71875,-4.79883 c -2.5592,-2.02603 -6.0251,-3.51758 -10.34375,-3.51758 z m -40.04688,0.63867 v 18.28711 c 0,5.01176 2.66485,8.10547 8.31641,8.10547 4.21202,0 7.305,-1.97318 9.06445,-3.89258 v 3.25196 h 6.77149 v -25.75196 h -6.77149 v 17.43555 c -1.17296,1.49287 -3.25271,2.93164 -5.86523,2.93164 -2.8791,0 -4.74414,-1.17388 -4.74414,-4.74609 v -15.6211 z m -79.4414,4.90625 c 4.4786,0 6.18516,3.03768 6.39843,5.49024 h -12.68945 c 0.26659,-2.55919 2.079,-5.49024 6.29102,-5.49024 z m -39.2461,6.07617 h 9.8086 c 2.93242,0 4.5332,1.81344 4.5332,4.05274 0,2.5592 -1.70742,4.05273 -4.5332,4.05273 h -9.8086 z m 80.60156,3.09375 c 2.18598,0 4.31786,0.8001 5.4375,2.29297 v 3.19727 c -1.11964,1.49286 -3.25152,2.24023 -5.4375,2.24023 -2.66584,0 -4.85351,-1.38533 -4.85351,-3.83789 0,-2.45257 2.18767,-3.89258 4.85351,-3.89258 z"
    class="text"
    id="belarus"/>
  <path
    d="m 180.39448,134.09375 c -2.67708,0 -4.76042,-0.70312 -6.25,-2.10938 -1.48958,-1.41666 -2.23438,-3.40625 -2.23438,-5.96874 v -11.84375 h 3.46875 v 11.73437 c 0,1.5625 0.41667,2.80729 1.25,3.73437 0.84376,0.92709 2.09897,1.39063 3.76563,1.39063 1.63542,0 2.875,-0.46354 3.71875,-1.39063 0.84375,-0.92708 1.26562,-2.17187 1.26562,-3.73437 v -11.73437 h 3.45313 v 11.8125 c 0,2.58333 -0.74479,4.58333 -2.23438,5.99999 -1.47916,1.40626 -3.54687,2.10938 -6.20312,2.10938 z m 17.35254,0 c -2.54166,0 -4.5625,-0.73437 -6.0625,-2.20313 l 1.40625,-2.23437 c 0.625,0.625 1.38021,1.11459 2.26562,1.46875 0.89584,0.35417 1.7448,0.53125 2.54688,0.53125 0.9375,0 1.63542,-0.17708 2.09375,-0.53125 0.45834,-0.35416 0.6875,-0.8125 0.6875,-1.375 0,-0.51042 -0.28646,-0.90104 -0.85938,-1.17188 -0.5625,-0.28124 -1.70312,-0.59374 -3.42187,-0.93749 -2.85416,-0.61459 -4.28125,-1.98438 -4.28125,-4.10938 0,-1.27083 0.51042,-2.30729 1.53125,-3.10937 1.03125,-0.80209 2.38021,-1.20313 4.04687,-1.20313 2.16667,0 4,0.66667 5.5,2 l -1.28125,2.15625 c -0.42708,-0.48958 -1.01562,-0.89062 -1.76562,-1.20312 -0.73958,-0.32292 -1.55208,-0.48438 -2.4375,-0.48438 -0.8125,0 -1.45312,0.16146 -1.92188,0.48438 -0.46874,0.3125 -0.70312,0.72396 -0.70312,1.23437 0,0.44792 0.25,0.78646 0.75,1.01563 0.51042,0.22916 1.6875,0.54687 3.53125,0.95312 2.85417,0.64584 4.28125,2.08334 4.28125,4.3125 0,1.34375 -0.54166,2.41667 -1.625,3.21875 -1.07292,0.79167 -2.5,1.1875 -4.28125,1.1875 z m 15.54599,0 c -2.1875,0 -3.97396,-0.69271 -5.35938,-2.07813 -1.375,-1.39583 -2.0625,-3.1875 -2.0625,-5.37499 0,-2.13542 0.6823,-3.90625 2.04688,-5.3125 1.375,-1.40625 3.08854,-2.10938 5.14062,-2.10938 2.1146,0 3.80732,0.72917 5.07815,2.1875 1.27084,1.45834 1.90625,3.30209 1.90625,5.53125 v 0.71875 h -10.93752 c 0.13542,1.17708 0.60938,2.125 1.42188,2.84375 0.8125,0.70834 1.84375,1.0625 3.09375,1.0625 0.68751,0 1.40106,-0.13021 2.14064,-0.39063 0.73958,-0.27083 1.36458,-0.65625 1.875,-1.15625 l 1.40625,2.01563 c -1.40625,1.375 -3.32292,2.0625 -5.75002,2.0625 z M 217.04303,125.5 c -0.0521,-1.11458 -0.4479,-2.02083 -1.1875,-2.71875 -0.72916,-0.69791 -1.66146,-1.04687 -2.7969,-1.04687 -1.11458,0 -2.03124,0.34896 -2.75,1.04687 -0.70833,0.69792 -1.11979,1.60417 -1.23437,2.71875 z m 6.0545,8.23437 V 119.5625 h 3.07812 v 2.09375 c 0.52084,-0.6875 1.1823,-1.26041 1.98438,-1.71875 0.80208,-0.45833 1.67187,-0.6875 2.60937,-0.6875 v 3.04688 l -0.96875,-0.0937 c -0.65624,0 -1.34895,0.1875 -2.07812,0.5625 -0.71875,0.375 -1.23438,0.8125 -1.54688,1.3125 v 9.65625 z m 27.18292,0.375 c -2.96874,0 -5.42187,-0.95312 -7.35937,-2.85937 -1.9375,-1.91666 -2.90625,-4.34375 -2.90625,-7.28125 0,-2.94791 0.96875,-5.36979 2.90625,-7.26562 1.9375,-1.90625 4.39063,-2.85938 7.35937,-2.85938 3.38542,0 6.01563,1.35938 7.89063,4.07813 l -2.8125,1.59375 c -0.51042,-0.75 -1.20833,-1.36979 -2.09375,-1.85938 -0.875,-0.5 -1.86979,-0.75 -2.98438,-0.75 -1.95833,0 -3.57291,0.67188 -4.84375,2.01563 -1.27083,1.33333 -1.90625,3.01562 -1.90625,5.04687 0,2.01042 0.63542,3.69792 1.90625,5.0625 1.27084,1.35417 2.88542,2.03125 4.84375,2.03125 1,0 1.90625,-0.1875 2.71875,-0.5625 0.82292,-0.38542 1.45834,-0.78125 1.90625,-1.1875 V 126.25 h -5.82812 v -3.01562 h 9.26562 v 7.32812 c -2.14583,2.36458 -4.83333,3.54687 -8.0625,3.54687 z m 11.55951,-0.375 V 119.5625 h 3.07813 v 2.09375 c 0.52084,-0.6875 1.18229,-1.26041 1.98437,-1.71875 0.80209,-0.45833 1.67188,-0.6875 2.60938,-0.6875 v 3.04688 l -0.96875,-0.0937 c -0.65625,0 -1.34896,0.1875 -2.07813,0.5625 -0.71874,0.375 -1.23437,0.8125 -1.54687,1.3125 v 9.65625 z m 16.56747,0.35938 c -2.11458,0 -3.85937,-0.69271 -5.23437,-2.07813 -1.36458,-1.39583 -2.04688,-3.1875 -2.04688,-5.37499 0,-2.17709 0.67709,-3.95834 2.03125,-5.34375 1.36459,-1.38542 3.11459,-2.07813 5.25,-2.07813 2.125,0 3.8698,0.69271 5.23438,2.07813 1.375,1.38541 2.0625,3.16666 2.0625,5.34375 0,2.18749 -0.6875,3.97916 -2.0625,5.37499 -1.36458,1.38542 -3.10938,2.07813 -5.23438,2.07813 z m 0,-2.73438 c 1.20834,0 2.19271,-0.4375 2.95313,-1.3125 0.77084,-0.88541 1.15625,-2.02083 1.15625,-3.40624 0,-1.39584 -0.38541,-2.52604 -1.15625,-3.39063 -0.76042,-0.875 -1.74479,-1.3125 -2.95313,-1.3125 -1.19791,0 -2.17708,0.43229 -2.9375,1.29688 -0.76041,0.86458 -1.14062,2 -1.14062,3.40625 0,1.40625 0.375,2.54687 1.125,3.42187 0.75,0.86458 1.73438,1.29687 2.95312,1.29687 z m 19.97687,2.375 v -1.875 c -0.51041,0.5625 -1.19791,1.07813 -2.0625,1.54688 -0.85416,0.45834 -1.83854,0.6875 -2.95312,0.6875 -3.03125,0 -4.54688,-1.5 -4.54688,-4.5 V 119.5625 h 3.07813 v 8.92187 c 0,1.91667 0.94792,2.875 2.84375,2.875 0.78125,0 1.48958,-0.18229 2.125,-0.54687 0.63542,-0.375 1.14062,-0.80729 1.51562,-1.29688 v -9.95312 h 3.07813 v 14.17187 z m 14.69156,0.35938 c -1.88541,0 -3.40103,-0.77604 -4.54687,-2.32813 v 7.35938 h -3.07813 v -19.5625 h 3.07813 V 121.5 c 1.13542,-1.52083 2.65104,-2.28125 4.54687,-2.28125 1.89584,0 3.41146,0.67709 4.54688,2.03125 1.14584,1.34375 1.71875,3.14063 1.71875,5.39063 0,2.26041 -0.57812,4.06771 -1.73438,5.42187 -1.14583,1.35417 -2.65625,2.03125 -4.53125,2.03125 z m -0.92187,-2.73438 c 1.23958,0 2.21354,-0.4375 2.92187,-1.3125 0.71876,-0.88541 1.07813,-2.02083 1.07813,-3.40624 0,-1.42709 -0.38021,-2.56771 -1.14063,-3.42188 -0.75,-0.85416 -1.70312,-1.28125 -2.85937,-1.28125 -0.69792,0 -1.38021,0.17709 -2.04688,0.53125 -0.66666,0.35417 -1.1927,0.8125 -1.57812,1.375 v 5.60937 c 0.38542,0.55209 0.90625,1.01042 1.5625,1.375 0.65625,0.35417 1.34375,0.53125 2.0625,0.53125 z"
    class="text"
    id="user_group"/>
</svg>
