<?xml version="1.0" encoding="UTF-8" standalone="no"?>
<!-- Created with Inkscape (http://www.inkscape.org/) -->

<svg
   xmlns:dc="http://purl.org/dc/elements/1.1/"
   xmlns:cc="http://creativecommons.org/ns#"
   xmlns:rdf="http://www.w3.org/1999/02/22-rdf-syntax-ns#"
   xmlns:svg="http://www.w3.org/2000/svg"
   xmlns="http://www.w3.org/2000/svg"
   xmlns:sodipodi="http://sodipodi.sourceforge.net/DTD/sodipodi-0.dtd"
   xmlns:inkscape="http://www.inkscape.org/namespaces/inkscape"
   width="238.34335mm"
   height="79.813766mm"
   viewBox="0 0 844.52369 282.80468"
   id="svg4438"
   version="1.1"
   inkscape:version="0.91 r13725"
   sodipodi:docname="drawing.svg">
  <defs
     id="defs4440">
    <clipPath
       id="p.0">
      <path
         style="clip-rule:nonzero"
         inkscape:connector-curvature="0"
         d="M 0,0 820,0 820,250 0,250 0,0 Z"
         id="path5" />
    </clipPath>
  </defs>
  <sodipodi:namedview
     id="base"
     pagecolor="#ffffff"
     bordercolor="#666666"
     borderopacity="1.0"
     inkscape:pageopacity="0.0"
     inkscape:pageshadow="2"
     inkscape:zoom="0.7"
     inkscape:cx="90.98732"
     inkscape:cy="-176.71596"
     inkscape:document-units="px"
     inkscape:current-layer="layer2"
     showgrid="false"
     inkscape:window-width="1855"
     inkscape:window-height="1056"
     inkscape:window-x="65"
     inkscape:window-y="24"
     inkscape:window-maximized="1"
     fit-margin-bottom="-100"
     fit-margin-top="0"
     fit-margin-left="0"
     fit-margin-right="0" />
  <metadata
     id="metadata4443">
    <rdf:RDF>
      <cc:Work
         rdf:about="">
        <dc:format>image/svg+xml</dc:format>
        <dc:type
           rdf:resource="http://purl.org/dc/dcmitype/StillImage" />
        <dc:title></dc:title>
      </cc:Work>
    </rdf:RDF>
  </metadata>
  <g
     inkscape:groupmode="layer"
     id="layer2"
     inkscape:label="Logo"
     transform="translate(-11.190617,-20.226811)">
    <g
       id="g4253"
       transform="translate(208.71266,77.826087)">
      <g
         id="flowRoot4166"
         style="font-style:normal;font-weight:normal;font-size:50px;line-height:125%;font-family:sans-serif;letter-spacing:0px;word-spacing:0px;fill:#221f3a;fill-opacity:1;stroke:none;stroke-width:1px;stroke-linecap:butt;stroke-linejoin:miter;stroke-opacity:1"
         transform="matrix(1.0739553,0,0,1.0750457,-11.962076,19.804803)">
        <path
           inkscape:connector-curvature="0"
           id="path4264"
           style="font-style:normal;font-variant:normal;font-weight:bold;font-stretch:normal;font-size:50px;line-height:121.00000381%;font-family:'Littera Text';-inkscape-font-specification:'Littera Text Bold';letter-spacing:0px;fill:#221f3a;fill-opacity:1"
           d="m 234.43906,39.178107 -7.9,0 -11.95,15.05 0,-15.05 -6.8,0 0,32.5 6.8,0 0,-9.05 3.55,-4.4 9.6,13.45 8.5,0 -13.65,-18.05 11.85,-14.45 z" />
        <path
           inkscape:connector-curvature="0"
           id="path4266"
           style="font-style:normal;font-variant:normal;font-weight:bold;font-stretch:normal;font-size:50px;line-height:121.00000381%;font-family:'Littera Text';-inkscape-font-specification:'Littera Text Bold';letter-spacing:0px;fill:#221f3a;fill-opacity:1"
           d="m 237.25781,60.178107 c 0,7.25 4.6,12.25 12.35,12.25 7.8,0 12.35,-5 12.35,-12.25 0,-7.25 -4.65,-12.25 -12.35,-12.25 -7.7,0 -12.35,5 -12.35,12.25 z m 6.3,0 c 0,-3.85 2.2,-7.15 6.05,-7.15 3.9,0 6.05,3.3 6.05,7.15 0,3.8 -2.15,7.1 -6.05,7.1 -3.85,0 -6.05,-3.3 -6.05,-7.1 z" />
        <path
           inkscape:connector-curvature="0"
           id="path4268"
           style="font-style:normal;font-variant:normal;font-weight:bold;font-stretch:normal;font-size:50px;line-height:121.00000381%;font-family:'Littera Text';-inkscape-font-specification:'Littera Text Bold';letter-spacing:0px;fill:#221f3a;fill-opacity:1"
           d="m 265.96875,48.678107 0,4.65 3.35,0 0,11.7 c 0,4.85 1.55,7.4 6.85,7.4 1.85,0 3.8,-0.55 4.8,-0.9 l -0.8,-4.8 c -0.25,0.1 -1.9,0.35 -2.55,0.35 -2.3,0 -2,-1.15 -2,-3.35 l 0,-10.4 4.55,0 0,-4.65 -4.55,0 0,-6 -6.3,0 0,6 -3.35,0 z" />
        <path
           inkscape:connector-curvature="0"
           id="path4270"
           style="font-style:normal;font-variant:normal;font-weight:bold;font-stretch:normal;font-size:50px;line-height:121.00000381%;font-family:'Littera Text';-inkscape-font-specification:'Littera Text Bold';letter-spacing:0px;fill:#221f3a;fill-opacity:1"
           d="m 292.8,39.178107 -6.3,0 0,32.5 6.3,0 0,-32.5 z" />
        <path
           inkscape:connector-curvature="0"
           id="path4272"
           style="font-style:normal;font-variant:normal;font-weight:bold;font-stretch:normal;font-size:50px;line-height:121.00000381%;font-family:'Littera Text';-inkscape-font-specification:'Littera Text Bold';letter-spacing:0px;fill:#221f3a;fill-opacity:1"
           d="m 298.80469,71.678107 6.3,0 0,-23 -6.3,0 0,23 z m -0.65,-31.05 c 0,2.15 1.65,3.75 3.8,3.75 2.15,0 3.8,-1.6 3.8,-3.75 0,-2.15 -1.65,-3.85 -3.8,-3.85 -2.15,0 -3.8,1.7 -3.8,3.85 z" />
        <path
           inkscape:connector-curvature="0"
           id="path4274"
           style="font-style:normal;font-variant:normal;font-weight:bold;font-stretch:normal;font-size:50px;line-height:121.00000381%;font-family:'Littera Text';-inkscape-font-specification:'Littera Text Bold';letter-spacing:0px;fill:#221f3a;fill-opacity:1"
           d="m 317.40937,60.178107 c 0,-3.55 1.95,-7.15 5.5,-7.15 2.35,0 3.55001,1.05 3.55001,5.65 l 0,13 6.29999,0 0,-13.75 c 0,-8.05 -3.95,-10 -8.15,-10 -2.89999,0 -5.85,1.3 -7.7,5.45 l 0,-4.7 -5.8,0 0,23 6.3,0 0,-11.5 z" />
      </g>
    </g>
    <g
       id="g4259"
       transform="translate(208.71266,77.826087)">
      <text
         xml:space="preserve"
         style="font-style:normal;font-weight:normal;font-size:42.9041481px;line-height:125%;font-family:sans-serif;letter-spacing:0px;word-spacing:0px;fill:#221f3a;fill-opacity:1;stroke:none;stroke-width:1px;stroke-linecap:butt;stroke-linejoin:miter;stroke-opacity:1"
         x="208.32576"
         y="144.55917"
         id="text4182"
         sodipodi:linespacing="125%"
         transform="scale(0.99949306,1.0005072)"><tspan
           sodipodi:role="line"
           id="tspan4184"
           x="208.32576"
           y="144.55917"
           style="font-style:normal;font-variant:normal;font-weight:bold;font-stretch:normal;font-size:53.63018799px;font-family:'Littera Text';-inkscape-font-specification:'Littera Text Bold';fill:#221f3a;fill-opacity:1">Belarus</tspan></text>
    </g>
    <text
       transform="scale(0.98621235,1.0139804)"
       sodipodi:linespacing="125%"
       id="text4186"
       y="260.4621"
       x="426.47934"
       style="font-style:normal;font-weight:normal;font-size:39.44849396px;line-height:125%;font-family:sans-serif;letter-spacing:0px;word-spacing:0px;fill:#221f3a;fill-opacity:1;stroke:none;stroke-width:1px;stroke-linecap:butt;stroke-linejoin:miter;stroke-opacity:1"
       xml:space="preserve"><tspan
         style="font-style:normal;font-variant:normal;font-weight:500;font-stretch:normal;font-size:29.58637047px;font-family:'Littera Text';-inkscape-font-specification:'Littera Text Medium';fill:#221f3a;fill-opacity:1"
         y="260.4621"
         x="426.47934"
         id="tspan4188"
         sodipodi:role="line">User Group</tspan></text>
    <g
       transform="matrix(0.35186912,0,0.00247819,0.35186912,233.89543,114.71443)"
       id="g4234">
      <g
         id="g4193">
        <path
           style="fill:#25a4f2"
           inkscape:connector-curvature="0"
           class="st0"
           d="M 384.2,123.9 303,42.7 l -81.2,81.2 81.2,81.2 0,-81.2 c 0,0 82.6,-1.3 81.2,0 z"
           id="path4195" />
      </g>
      <g
         id="g4197">
        <path
           style="fill:#25a4f2"
           inkscape:connector-curvature="0"
           class="st0"
           d="m 434.2,255.1 0,-114.8 -114.8,0 0,114.8 57.4,-57.4 c 0,0 59.3,57.4 57.4,57.4 z"
           id="path4199" />
      </g>
      <g
         id="g4201">
        <path
           style="fill:#25a4f2"
           inkscape:connector-curvature="0"
           class="st0"
           d="m 376.8,383.3 81.2,-81.2 -81.2,-81.2 -81.2,81.2 81.2,0 c 0,0 1.3,82.5 0,81.2 z"
           id="path4203" />
      </g>
      <g
         id="g4205">
        <path
           style="fill:#25a4f2"
           inkscape:connector-curvature="0"
           class="st0"
           d="m 245.6,433.3 114.8,0 0,-114.9 -114.8,0 57.4,57.4 c 0,0.1 -57.4,59.4 -57.4,57.5 z"
           id="path4207" />
      </g>
      <g
         id="g4209">
        <path
           style="fill:#25a4f2"
           inkscape:connector-curvature="0"
           class="st0"
           d="m 117.4,375.9 81.2,81.2 81.2,-81.2 -81.2,-81.2 0,81.2 c 0.1,0 -82.5,1.3 -81.2,0 z"
           id="path4211" />
      </g>
      <g
         id="g4213">
        <path
           style="fill:#25a4f2"
           inkscape:connector-curvature="0"
           class="st0"
           d="m 67.4,244.7 0,114.8 114.9,0 0,-114.8 -57.4,57.4 c 0,0 -59.4,-57.4 -57.5,-57.4 z"
           id="path4215" />
      </g>
      <g
         id="g4217">
        <path
           style="fill:#25a4f2"
           inkscape:connector-curvature="0"
           class="st0"
           d="m 124.9,116.5 -81.2,81.2 81.2,81.2 81.2,-81.2 -81.2,0 c 0,0 -1.4,-82.5 0,-81.2 z"
           id="path4219" />
      </g>
      <g
         id="g4221">
        <g
           id="g4223">
          <path
             style="fill:#221f3a"
             inkscape:connector-curvature="0"
             class="st1"
             d="m 256.1,66.5 -114.9,0 0,114.9 114.8,0 -57.4,-57.4 c 0,-0.1 57.5,-59.4 57.5,-57.5 z"
             id="path4225" />
        </g>
      </g>
    </g>
    <g
       transform="matrix(1.7362585,0,0,1.7362585,-5.8921213,-221.41816)"
       style="font-style:normal;font-weight:normal;font-size:40px;line-height:125%;font-family:sans-serif;letter-spacing:0px;word-spacing:0px;fill:#221f3a;fill-opacity:1;stroke:none;stroke-width:1px;stroke-linecap:butt;stroke-linejoin:miter;stroke-opacity:1"
       id="flowRoot5116">
      <path
         d="m 151.71367,170.67882 c 1,0 2.52,1.32 2.52,3.04 l 0,6.72 c 0,5.36 4.08,6.48 8.2,5.68 l 0,-4.52 c -2.72,0.8 -3.56,-0.4 -3.56,-3.2 l 0,-5.32 c 0,-2.24 -1.24,-3.2 -2.4,-3.92 1.16,-0.72 2.4,-1.68 2.4,-3.92 l 0,-5.44 c 0,-2.8 0.84,-4 3.56,-3.2 l 0,-4.52 c -4.12,-0.8 -8.2,0.32 -8.2,5.68 l 0,6.84 c 0,1.72 -1.52,3.04 -2.52,3.04 l 0,3.04 z"
         style="font-style:normal;font-variant:normal;font-weight:bold;font-stretch:normal;font-family:'Littera Text';-inkscape-font-specification:'Littera Text Bold';fill:#221f3a;fill-opacity:1"
         id="path5144"
         inkscape:connector-curvature="0" />
      <path
         d="m 196.07867,172.75882 c 0,-6.2 -5.28,-7.24 -10.16,-8.68 -3.64,-1.08 -4.16,-1.76 -4.16,-3.24 0,-1.88 1.6,-2.68 3.76,-2.68 2.16,0 4.4,0.72 6.32,2.32 l 3.08,-3.84 c -2.12,-2.52 -6.24,-3.08 -9.4,-3.08 -5.8,0 -9.6,2.8 -9.6,7.4 0,4.96 3.52,6.8 10.04,8.48 3.36,0.88 4.28,1.84 4.28,3.32 0,1.56 -1.32,3.12 -4.68,3.12 -2.56,0 -5.84,-1.48 -7.08,-3.28 l -3.4,3.68 c 2.24,3.6 7.32,4.48 10.48,4.48 5.4,0 10.52,-2.6 10.52,-8 z"
         style="font-style:normal;font-variant:normal;font-weight:bold;font-stretch:normal;font-family:'Littera Text';-inkscape-font-specification:'Littera Text Bold';fill:#221f3a;fill-opacity:1"
         id="path5146"
         inkscape:connector-curvature="0" />
      <path
         d="m 204.74117,161.75882 -4.64,0 0,25.76 5.04,0 0,-10 c 1.48,2.72 3.88,3.16 5.76,3.16 4.96,0 8.32,-3.56 8.32,-9.76 0,-6.2 -3.28,-9.76 -8.32,-9.76 -2.28,0 -4.64,1.04 -6.16,3.56 l 0,-2.96 z m 0.24,9.16 c 0,-3.6 1.72,-5.68 4.56,-5.68 3.2,0 4.48,2.64 4.48,5.68 0,3.04 -1.28,5.68 -4.48,5.68 -2.84,0 -4.56,-2.08 -4.56,-5.68 z"
         style="font-style:normal;font-variant:normal;font-weight:bold;font-stretch:normal;font-family:'Littera Text';-inkscape-font-specification:'Littera Text Bold';fill:#221f3a;fill-opacity:1"
         id="path5148"
         inkscape:connector-curvature="0" />
      <path
         d="m 222.42617,171.03882 c 0,5.8 3.28,9.72 9.88,9.72 3.16,0 6.2,-1 8.12,-3.56 l -2.88,-2.84 c -1.52,1.76 -3.48,2.28 -5.24,2.28 -2.08,0 -4.72,-1.24 -4.84,-4 l 13.24,0 0,-1.92 c 0,-6.2 -3.28,-9.56 -9.08,-9.56 -4.84,0 -9.2,3.68 -9.2,9.88 z m 9.4,-5.8 c 2.56,0 3.76,1.4 4,3.88 l -8.2,0 c 0.32,-2.64 2.12,-3.88 4.2,-3.88 z"
         style="font-style:normal;font-variant:normal;font-weight:bold;font-stretch:normal;font-family:'Littera Text';-inkscape-font-specification:'Littera Text Bold';fill:#221f3a;fill-opacity:1"
         id="path5150"
         inkscape:connector-curvature="0" />
      <path
         d="m 247.31055,166.95882 c 1.24,-1.24 2.76,-1.8 4.52,-1.8 1.76,0 3.76,0.68 3.76,3.16 -5,0 -12.08,0.56 -12.08,6.92 0,3.24 2.2,5.52 6,5.52 2.48,0 4.68,-0.48 6.72,-2.2 0.44,1.16 1.44,2.08 3.76,2.08 0.8,0 1.64,0 2.48,-0.08 l 0,-3.84 c -1.76,0.08 -1.84,-0.68 -1.84,-2.12 l 0,-5.92 c 0,-5.88 -3.92,-7.52 -8.44,-7.52 -1.96,0 -4.24,0.4 -7.12,2.8 l 2.24,3 z m 8.28,8.16 c -1.36,1.36 -3.04,1.76 -4.4,1.76 -1.6,0 -2.6,-0.56 -2.6,-2.12 0,-2 2.16,-2.92 7,-2.92 l 0,3.28 z"
         style="font-style:normal;font-variant:normal;font-weight:bold;font-stretch:normal;font-family:'Littera Text';-inkscape-font-specification:'Littera Text Bold';fill:#221f3a;fill-opacity:1"
         id="path5152"
         inkscape:connector-curvature="0" />
      <path
         d="m 271.07867,169.91882 0,-15.76 -5.04,0 0,26 5.04,0 0,-4.72 2.24,-2.4 5.08,7.12 6.08,0 -8.24,-10.2 7.52,-8.2 -5.8,0 -6.88,8.16 z"
         style="font-style:normal;font-variant:normal;font-weight:bold;font-stretch:normal;font-family:'Littera Text';-inkscape-font-specification:'Littera Text Bold';fill:#221f3a;fill-opacity:1"
         id="path5154"
         inkscape:connector-curvature="0" />
      <path
         d="m 285.70742,171.03882 c 0,5.8 3.28,9.72 9.88,9.72 3.16,0 6.2,-1 8.12,-3.56 l -2.88,-2.84 c -1.52,1.76 -3.48,2.28 -5.24,2.28 -2.08,0 -4.72,-1.24 -4.84,-4 l 13.24,0 0,-1.92 c 0,-6.2 -3.28,-9.56 -9.08,-9.56 -4.84,0 -9.2,3.68 -9.2,9.88 z m 9.4,-5.8 c 2.56,0 3.76,1.4 4,3.88 l -8.2,0 c 0.32,-2.64 2.12,-3.88 4.2,-3.88 z"
         style="font-style:normal;font-variant:normal;font-weight:bold;font-stretch:normal;font-family:'Littera Text';-inkscape-font-specification:'Littera Text Bold';fill:#221f3a;fill-opacity:1"
         id="path5156"
         inkscape:connector-curvature="0" />
      <path
         d="m 313.0318,172.55882 c 0,-3.64 2.52,-6.4 6.16,-6.4 0.56,0 1.2,0.04 1.76,0.24 l 0.52,-4.64 c -0.56,-0.28 -1.6,-0.44 -2.28,-0.44 -1.92,0 -4.84,0.76 -6.36,5.12 l 0,-4.68 -4.84,0 0,18.4 5.04,0 0,-7.6 z"
         style="font-style:normal;font-variant:normal;font-weight:bold;font-stretch:normal;font-family:'Littera Text';-inkscape-font-specification:'Littera Text Bold';fill:#221f3a;fill-opacity:1"
         id="path5158"
         inkscape:connector-curvature="0" />
      <path
         d="m 344.62117,167.63882 c -1,0 -2.52,-1.32 -2.52,-3.04 l 0,-6.84 c 0,-5.36 -4.08,-6.48 -8.2,-5.68 l 0,4.52 c 2.72,-0.8 3.56,0.4 3.56,3.2 l 0,5.44 c 0,2.24 1.24,3.2 2.4,3.92 -1.16,0.72 -2.4,1.68 -2.4,3.92 l 0,5.32 c 0,2.8 -0.84,4 -3.56,3.2 l 0,4.52 c 4.12,0.8 8.2,-0.32 8.2,-5.68 l 0,-6.72 c 0,-1.72 1.52,-3.04 2.52,-3.04 l 0,-3.04 z"
         style="font-style:normal;font-variant:normal;font-weight:bold;font-stretch:normal;font-family:'Littera Text';-inkscape-font-specification:'Littera Text Bold';fill:#221f3a;fill-opacity:1"
         id="path5160"
         inkscape:connector-curvature="0" />
    </g>
  </g>
</svg>
