<?xml version="1.0" encoding="UTF-8" standalone="no"?>
<!-- Created with Inkscape (http://www.inkscape.org/) -->

<svg
   xmlns:dc="http://purl.org/dc/elements/1.1/"
   xmlns:cc="http://creativecommons.org/ns#"
   xmlns:rdf="http://www.w3.org/1999/02/22-rdf-syntax-ns#"
   xmlns:svg="http://www.w3.org/2000/svg"
   xmlns="http://www.w3.org/2000/svg"
   xmlns:sodipodi="http://sodipodi.sourceforge.net/DTD/sodipodi-0.dtd"
   xmlns:inkscape="http://www.inkscape.org/namespaces/inkscape"
   id="svg2"
   version="1.1"
   inkscape:version="0.91 r13725"
   xml:space="preserve"
   width="206.14612"
   height="206.18863"
   viewBox="0 0 206.14612 206.18863"
   sodipodi:docname="60mm_width.svg"><metadata
     id="metadata8"><rdf:RDF><cc:Work
         rdf:about=""><dc:format>image/svg+xml</dc:format><dc:type
           rdf:resource="http://purl.org/dc/dcmitype/StillImage" /><dc:title></dc:title></cc:Work></rdf:RDF></metadata><defs
     id="defs6"><clipPath
       clipPathUnits="userSpaceOnUse"
       id="clipPath16"><path
         d="m 0,164.951 164.917,0 L 164.917,0 0,0 0,164.951 Z"
         id="path18"
         inkscape:connector-curvature="0" /></clipPath></defs><sodipodi:namedview
     pagecolor="#ffffff"
     bordercolor="#666666"
     borderopacity="1"
     objecttolerance="10"
     gridtolerance="10"
     guidetolerance="10"
     inkscape:pageopacity="0"
     inkscape:pageshadow="2"
     inkscape:window-width="1855"
     inkscape:window-height="1056"
     id="namedview4"
     showgrid="false"
     inkscape:zoom="3.2373696"
     inkscape:cx="107.72808"
     inkscape:cy="115.50427"
     inkscape:window-x="65"
     inkscape:window-y="24"
     inkscape:window-maximized="1"
     inkscape:current-layer="g14" /><g
     id="g10"
     inkscape:groupmode="layer"
     inkscape:label="60mm_width"
     transform="matrix(1.25,0,0,-1.25,0,206.18863)"><g
       id="g12"><g
         id="g14"
         clip-path="url(#clipPath16)"><g
           id="g20"
           transform="translate(37.2436,138.2743)"
           style="fill:#ffffff;fill-opacity:1"><path
             d="m 0,0 0,15.633 46.643,0 c 0.269,0.018 0.539,0.017 0.805,0 l 5.262,0 11.043,11.044 32.963,-32.963 c 0.205,-0.179 0.396,-0.371 0.573,-0.573 l 3.742,-3.743 15.598,0 0,-46.607 c 0.017,-0.27 0.017,-0.538 0,-0.805 l 0,-5.297 11.044,-11.044 -32.976,-32.975 c -0.172,-0.196 -0.356,-0.38 -0.55,-0.55 l -3.753,-3.753 0,-15.598 -46.607,0 c -0.27,-0.017 -0.539,-0.017 -0.805,0 l -5.297,0 -11.044,-11.044 -32.975,32.976 c -0.196,0.173 -0.38,0.356 -0.55,0.55 l -3.753,3.753 -15.598,0 0,46.607 c -0.018,0.27 -0.017,0.539 0,0.806 l 0,5.332 -11.008,11.008 32.965,32.966 c 0.178,0.202 0.368,0.392 0.568,0.567 L 0,0 Z"
             style="fill:#ffffff;stroke:#d8d9d9;stroke-width:0.21600001;stroke-linecap:butt;stroke-linejoin:miter;stroke-miterlimit:22.9260006;stroke-dasharray:none;stroke-opacity:1;fill-opacity:1"
             id="path22"
             inkscape:connector-curvature="0" /></g><g
           id="g24"
           transform="translate(129.8622,127.2663)"><path
             d="M 0,0 -28.865,28.865 -57.731,0 l 28.866,-28.865 0,28.865 c 0,0 29.363,0.462 28.865,0"
             style="fill:#25a4f2;fill-opacity:1;fill-rule:evenodd;stroke:none"
             id="path26"
             inkscape:connector-curvature="0" /></g><g
           id="g28"
           transform="translate(147.6363,80.627)"><path
             d="m 0,0 0,40.81 -40.81,0 0,-40.81 20.405,20.405 C -20.405,20.405 0.676,0 0,0"
             style="fill:#25a4f2;fill-opacity:1;fill-rule:evenodd;stroke:none"
             id="path30"
             inkscape:connector-curvature="0" /></g><g
           id="g32"
           transform="translate(127.2317,35.0541)"><path
             d="M 0,0 28.865,28.865 0,57.73 -28.865,28.865 0,28.865 C 0,28.865 0.462,-0.462 0,0"
             style="fill:#25a4f2;fill-opacity:1;fill-rule:evenodd;stroke:none"
             id="path34"
             inkscape:connector-curvature="0" /></g><g
           id="g36"
           transform="translate(80.5921,17.2798)"><path
             d="m 0,0 40.809,0 0,40.845 L 0,40.845 20.405,20.44 C 20.405,20.405 0,-0.675 0,0"
             style="fill:#25a4f2;fill-opacity:1;fill-rule:evenodd;stroke:none"
             id="path38"
             inkscape:connector-curvature="0" /></g><g
           id="g40"
           transform="translate(35.0192,37.6847)"><path
             d="M 0,0 28.865,-28.866 57.73,0 28.865,28.865 28.865,0 C 28.901,0 -0.462,-0.462 0,0"
             style="fill:#25a4f2;fill-opacity:1;fill-rule:evenodd;stroke:none"
             id="path42"
             inkscape:connector-curvature="0" /></g><g
           id="g44"
           transform="translate(17.2449,84.3239)"><path
             d="m 0,0 0,-40.809 40.845,0 L 40.845,0 20.44,-20.405 C 20.44,-20.405 -0.675,0 0,0"
             style="fill:#25a4f2;fill-opacity:1;fill-rule:evenodd;stroke:none"
             id="path46"
             inkscape:connector-curvature="0" /></g><g
           id="g48"
           transform="translate(37.6852,129.8968)"><path
             d="M 0,0 -28.865,-28.865 0,-57.73 28.865,-28.865 0,-28.865 c 0,0 -0.497,29.327 0,28.865"
             style="fill:#25a4f2;fill-opacity:1;fill-rule:evenodd;stroke:none"
             id="path50"
             inkscape:connector-curvature="0" /></g><g
           id="g52"
           transform="translate(84.3248,147.6712)"><path
             d="m 0,0 -40.845,0 0,-40.845 40.809,0 -20.404,20.405 C -20.44,-20.405 0,0.675 0,0"
             style="fill:#221f3a;fill-opacity:1;fill-rule:evenodd;stroke:none"
             id="path54"
             inkscape:connector-curvature="0" /></g></g></g></g></svg>