<?xml version="1.0" encoding="UTF-8"?>
<svg xmlns="http://www.w3.org/2000/svg" viewBox="0 0 252.29 140.94">
  <defs>
    <style>
      .a {
        fill: #1d1d1b;
      }
    </style>
  </defs>
  <title>logo_space_black</title>
  <path class="a" d="M143.06,77.52h2.62L125,34.13h-3.8L100.41,77.52ZM109.14,72l3.48-7.32.57-1.14L123,43l9.84,20.61.53,1.07L136.9,72Z"></path>
  <path
    class="a"
    d="M57.74,68A6.13,6.13,0,0,1,56,70.08a9.42,9.42,0,0,1-3,1.51,13.88,13.88,0,0,1-4.2.58H33.35v5.37H48.68a19.9,19.9,0,0,0,6.08-.89,15,15,0,0,0,4.78-2.52,11.3,11.3,0,0,0,3.16-3.94,10.93,10.93,0,0,0,1.12-4.9v-.11A11.13,11.13,0,0,0,63,60.84a9.15,9.15,0,0,0-2.84-3.62,17.84,17.84,0,0,0-4.65-2.5A43.92,43.92,0,0,0,49,52.92a41.13,41.13,0,0,1-5.57-1.47,13,13,0,0,1-3.23-1.61,4,4,0,0,1-1.35-1.56A5.57,5.57,0,0,1,38.37,46v-.1a4.86,4.86,0,0,1,.56-2.27,6.13,6.13,0,0,1,1.7-2.05A9.17,9.17,0,0,1,43.48,40a11.67,11.67,0,0,1,3.84-.59H63.4V34.12h-16a17.84,17.84,0,0,0-5.66.87,15.06,15.06,0,0,0-4.57,2.45A11.92,11.92,0,0,0,34,41.22,10.2,10.2,0,0,0,32.9,46v.11a10.64,10.64,0,0,0,.9,4.45,9.4,9.4,0,0,0,2.89,3.55,17,17,0,0,0,4.6,2.41,45.74,45.74,0,0,0,6.3,1.69,47.6,47.6,0,0,1,5.74,1.53,11.6,11.6,0,0,1,3.23,1.6A4.22,4.22,0,0,1,57.92,63a5.69,5.69,0,0,1,.42,2.27v.12a5.77,5.77,0,0,1-.6,2.61"></path>
  <path
    class="a"
    d="M104.36,48a12.5,12.5,0,0,0-4.74-10.34c-3-2.38-7.18-3.58-12.47-3.58H71.22V77.52h5.62V62.17H86.93c5.19,0,9.4-1.19,12.49-3.55a12.51,12.51,0,0,0,4.94-10.54Zm-5.62.17a7.13,7.13,0,0,1-2.84,6.21c-2.1,1.53-5.12,2.31-9,2.31H76.84V39.56H87c3.87,0,6.87.8,8.9,2.36A7.22,7.22,0,0,1,98.74,48Z"></path>
  <polygon class="a" points="219.12 39.56 219.12 34.05 187.43 34.05 187.43 77.52 219.4 77.52 219.4 72.01 193.05 72.01 193.05 58.43 216.06 58.43 216.06 52.92 193.05 52.92 193.05 39.56 219.12 39.56"></polygon>
  <path class="a" d="M166.1,39.61h13.6V34.05H166.1a21.74,21.74,0,0,0,0,43.47h13.6V72H166.1a16.18,16.18,0,0,1,0-32.36"></path>
  <polygon class="a" points="0 0 0 111.93 100.37 111.93 100.37 106.4 5.53 106.4 5.53 5.53 246.76 5.53 246.76 106.4 147.96 106.4 107.39 136.5 110.69 140.94 149.78 111.93 252.29 111.93 252.29 0 0 0"></polygon>
</svg>
