<svg width="80" height="22" viewBox="0 0 80 22" xmlns="http://www.w3.org/2000/svg">
  <g fill="#fff" fill-rule="evenodd">
    <path
      class="logo-inner"
      d="M70.746 17.922h-2.342a6.003 6.003 0 0 1-5.996-5.997V9.116a6.003 6.003 0 0 1 5.996-5.997h2.342a6.004 6.004 0 0 1 5.997 5.997v2.81a6.004 6.004 0 0 1-5.997 5.996m0-17.922h-2.342c-5.027 0-9.116 4.09-9.116 9.116v2.81c0 5.026 4.089 9.115 9.116 9.115h2.342c5.027 0 9.116-4.09 9.116-9.116V9.116C79.862 4.09 75.772 0 70.746 0M47.423 0H37.344v21.042h3.12V3.17h6.96c3.742 0 5.485 1.728 5.485 5.439v12.432h3.119V8.61c0-5.472-3.136-8.61-8.605-8.61M30.369 17.87h-6.96c-3.743 0-5.486-1.727-5.486-5.438V0h-3.119v12.432c0 5.472 3.136 8.61 8.604 8.61h10.08V0h-3.12v17.87zM7.964 12.432c0 3.71-1.744 5.439-5.485 5.439h-2.48v3.17h2.48c5.468 0 8.604-3.137 8.604-8.61V0h-3.12v12.432z"></path>
  </g>
</svg>
