<?xml version="1.0" encoding="UTF-8"?>
<svg width="1024px" height="400px" viewBox="0 0 1024 400" version="1.1" xmlns="http://www.w3.org/2000/svg" xmlns:xlink="http://www.w3.org/1999/xlink">
    <!-- Generator: Sketch 51.1 (57501) - http://www.bohemiancoding.com/sketch -->
    <title>1024х400_safe zone_green background</title>
    <desc>Created with Sketch.</desc>
    <defs></defs>
    <g id="1024х400_safe-zone_green-background" stroke="none" stroke-width="1" fill="none" fill-rule="evenodd">
        <rect fill="#1DCE6F" x="0" y="0" width="1024" height="400"></rect>
        <path d="M689.60114,198.790807 C689.628235,199.653057 689.641883,200.518686 689.641883,201.387493 C689.641883,246.364621 653.063601,282.825787 607.942004,282.825787 C562.820406,282.825787 526.242124,246.364621 526.242124,201.387493 C526.242124,156.410365 562.820406,119.949199 607.942004,119.949199 C627.693012,119.949199 645.807068,126.935385 659.932836,138.563951 L659.932836,75.8069626 C659.932836,67.629303 666.583433,61 674.78736,61 C682.991287,61 689.641883,67.629303 689.641883,75.8069626 L689.641883,197.685752 C689.641883,198.057462 689.628143,198.425973 689.60114,198.790807 Z M813.828962,215.401197 C805.525292,215.912892 798.377693,209.617801 797.864354,201.340716 C797.351016,193.063632 803.666327,185.938919 811.969998,185.427224 C820.711934,184.888521 826.412264,181.146959 829.191528,175.455311 C831.691922,170.334762 831.405125,164.249634 828.606948,159.95842 C824.140085,153.108151 816.669084,149.720371 806.842062,149.945353 C796.856016,150.173975 786.0048,154.291011 778.47642,160.604295 C766.973485,170.250631 760.176078,184.746744 760.176078,200.41421 C760.176078,229.439311 783.781149,252.968804 812.89948,252.968804 C836.100089,252.968804 848.919182,247.900976 879.85308,224.598406 C886.490425,219.59848 895.937317,220.908643 900.953303,227.524737 C905.969289,234.140831 904.654917,243.557475 898.017572,248.557401 C862.221352,275.522768 843.30766,283 812.89948,283 C767.142103,283 730.04842,246.025083 730.04842,200.41421 C730.04842,175.866154 740.786877,152.965379 759.081097,137.623885 C771.837753,126.92618 789.280422,120.308295 806.150282,119.922074 C825.827467,119.471582 843.307955,127.398236 853.867482,143.592062 C862.521256,156.863272 863.335988,174.149905 856.28065,188.598514 C848.71081,204.10077 833.324758,214.199812 813.828962,215.401197 Z M454.773948,268.017408 L454.773948,201.473836 C454.773948,172.760093 431.571387,149.483004 402.949579,149.483004 C374.32777,149.483004 351.12521,172.760093 351.12521,201.473836 L351.12521,268.017408 C351.12521,276.221334 344.495907,282.871931 336.318247,282.871931 C328.140587,282.871931 321.511284,276.221334 321.511284,268.017408 L321.511284,201.473836 C321.511284,156.352239 357.972451,119.773957 402.949579,119.773957 C447.926707,119.773957 484.387873,156.352239 484.387873,201.473836 L484.387873,268.017408 C484.387873,276.221334 477.75857,282.871931 469.58091,282.871931 C461.403251,282.871931 454.773948,276.221334 454.773948,268.017408 Z M607.942004,253.211862 C636.655748,253.211862 659.932836,230.009302 659.932836,201.387493 C659.932836,172.765684 636.655748,149.563124 607.942004,149.563124 C579.22826,149.563124 555.951171,172.765684 555.951171,201.387493 C555.951171,230.009302 579.22826,253.211862 607.942004,253.211862 Z M198.69988,282.825787 C153.578282,282.825787 117,246.364621 117,201.387493 C117,156.410365 153.578282,119.949199 198.69988,119.949199 C243.821477,119.949199 280.399759,156.410365 280.399759,201.387493 C280.399759,246.364621 243.821477,282.825787 198.69988,282.825787 Z M198.69988,253.211862 C227.413624,253.211862 250.690712,230.009302 250.690712,201.387493 C250.690712,172.765684 227.413624,149.563124 198.69988,149.563124 C169.986136,149.563124 146.709047,172.765684 146.709047,201.387493 C146.709047,230.009302 169.986136,253.211862 198.69988,253.211862 Z" id="logo_onde" fill="#FFFFFF" fill-rule="nonzero"></path>
    </g>
</svg>