<?xml version="1.0" encoding="UTF-8" standalone="no"?>
<!-- Generator: Adobe Illustrator 16.0.0, SVG Export Plug-In . SVG Version: 6.00 Build 0)  -->

<svg
   xmlns:dc="http://purl.org/dc/elements/1.1/"
   xmlns:cc="http://creativecommons.org/ns#"
   xmlns:rdf="http://www.w3.org/1999/02/22-rdf-syntax-ns#"
   xmlns:svg="http://www.w3.org/2000/svg"
   xmlns="http://www.w3.org/2000/svg"
   xmlns:sodipodi="http://sodipodi.sourceforge.net/DTD/sodipodi-0.dtd"
   xmlns:inkscape="http://www.inkscape.org/namespaces/inkscape"
   version="1.1"
   id="Layer_1"
   x="0px"
   y="0px"
   width="50cm"
   height="22.860001cm"
   viewBox="0 0 1889.7638 864"
   enable-background="new 0 0 864 864"
   xml:space="preserve"
   data-lt-installed="true"
   sodipodi:docname="darth_2.svg"
   inkscape:version="0.92.4 5da689c313, 2019-01-14"><metadata
   id="metadata35"><rdf:RDF><cc:Work
       rdf:about=""><dc:format>image/svg+xml</dc:format><dc:type
         rdf:resource="http://purl.org/dc/dcmitype/StillImage" /><dc:title></dc:title></cc:Work></rdf:RDF></metadata><defs
   id="defs33" /><sodipodi:namedview
   pagecolor="#ffffff"
   bordercolor="#666666"
   borderopacity="1"
   objecttolerance="10"
   gridtolerance="10"
   guidetolerance="10"
   inkscape:pageopacity="0"
   inkscape:pageshadow="2"
   inkscape:window-width="2560"
   inkscape:window-height="1376"
   id="namedview31"
   showgrid="false"
   units="px"
   showguides="false"
   inkscape:zoom="0.35355339"
   inkscape:cx="-196.91565"
   inkscape:cy="-627.52625"
   inkscape:window-x="0"
   inkscape:window-y="27"
   inkscape:window-maximized="1"
   inkscape:current-layer="Layer_1" />
<path
   style="clip-rule:evenodd;fill-rule:evenodd"
   d="M 274.79883 139.78516 C 271.72762 139.79016 268.66409 139.89159 265.61328 140.12109 C 227.73828 142.97009 191.36128 152.06889 160.73828 176.21289 C 138.56528 193.69389 126.69002 217.12525 125.04102 245.40625 C 123.79102 266.84425 123.03678 288.31177 121.92578 309.75977 C 121.02178 327.21477 120.56623 344.73416 118.61523 362.07812 C 117.70923 370.13212 113.81423 377.86931 111.11523 385.69531 C 91.618268 442.22731 65.044436 495.67563 39.398438 549.51562 C 37.298437 553.92363 38.329453 556.21836 41.689453 558.56836 C 51.299453 565.28936 61.823969 569.36147 73.667969 569.73047 C 76.144969 569.80847 78.619078 570.19506 81.080078 570.53906 C 84.414078 571.00606 86.766141 572.70906 86.869141 576.28906 C 86.974141 579.96906 85.921375 582.67981 81.859375 584.38281 C 66.540375 590.80581 53.895564 600.99981 43.101562 613.50781 C 34.814563 623.11281 26.546547 632.65136 14.935547 638.56836 C 13.771547 639.16136 13.086984 641.75202 13.083984 643.41602 C 13.023984 683.74202 13.082783 724.06763 13.132812 764.39062 C 13.134813 765.85862 13.262328 767.32569 13.361328 769.42969 L 15.291016 769.42969 L 13.361328 772.68945 L 67.962891 772.68945 C 67.962891 772.68945 151.13213 772.39125 201.70898 772.21094 L 202.62109 769.43359 C 205.39609 760.04359 208.15553 750.52787 211.01953 741.04688 C 217.18853 720.62387 225.98619 701.61503 240.49219 685.58203 C 242.94419 682.87103 245.06728 681.23409 248.48828 683.49609 C 251.65828 685.59209 252.98409 688.12367 250.87109 691.88867 C 244.36409 703.48367 237.37542 714.86409 231.73242 726.87109 C 225.54342 740.04509 220.63389 753.82056 215.21289 767.35156 C 215.01436 767.84746 213.89321 770.5469 213.89258 772 C 242.2568 771.89871 274.4156 771.8002 306.07031 771.69531 L 304.96875 769.69336 C 301.08199 762.16483 297.0115 754.34299 293.00977 746.47852 C 283.58577 727.95452 274.18736 709.41623 264.81836 690.86523 C 263.47136 688.19923 262.11639 685.5035 261.15039 682.6875 C 258.37839 674.6105 264.8385 664.14772 273.3125 662.63672 C 276.7395 662.02672 278.37748 663.96602 280.02148 666.54102 C 295.59548 690.94902 311.07475 715.42209 326.96875 739.62109 C 334.28175 750.75609 342.45541 761.3583 353.31641 769.4043 C 353.43882 769.49521 355.62945 771.10702 356.20703 771.5293 C 359.00892 771.52021 361.01503 771.51296 363.81055 771.50391 L 363.48828 769.69336 C 363.39028 769.12736 363.29331 768.56014 363.19531 767.99414 C 363.17531 767.88114 363.15672 767.7673 363.13672 767.6543 C 363.07472 767.2893 363.00736 766.92555 362.94336 766.56055 C 362.90636 766.35155 362.87003 766.14159 362.83203 765.93359 C 362.77003 765.60159 362.70462 765.27045 362.64062 764.93945 C 362.59864 764.72045 362.55867 764.5022 362.51367 764.2832 C 362.44567 763.9482 362.3708 763.6162 362.29688 763.2832 C 362.25088 763.0742 362.2072 762.8623 362.1582 762.6543 C 362.0752 762.2943 361.98067 761.93708 361.88867 761.58008 C 361.84367 761.40208 361.80291 761.22583 361.75391 761.04883 C 361.60991 760.51683 361.45606 759.98689 361.28906 759.46289 C 355.44006 741.13689 349.28473 722.908 343.30273 704.625 C 341.13773 698.007 338.96434 691.38111 337.15234 684.66211 C 336.43434 682.00111 334.68937 678.41522 338.48438 676.69922 C 342.67437 674.80422 345.08848 677.76605 346.64648 681.12305 C 351.25848 691.05505 356.12619 700.89803 360.11719 711.08203 C 367.38419 729.62803 374.20655 748.35452 380.93555 767.10352 C 381.04055 767.39652 381.14881 767.67527 381.25781 767.94727 C 381.28581 768.01727 381.31575 768.0853 381.34375 768.1543 C 381.43475 768.3713 381.52709 768.5812 381.62109 768.7832 C 381.64609 768.8372 381.67227 768.89231 381.69727 768.94531 C 381.82427 769.20731 381.95575 769.45736 382.09375 769.69336 L 383.17773 771.44141 C 389.13485 771.42216 393.20436 771.40769 399.0957 771.38867 L 398.52344 769.69336 L 398.52344 769.69141 C 397.01544 764.61541 395.5395 759.57608 394.0625 754.58008 C 394.0335 754.48108 394.00361 754.3822 393.97461 754.2832 C 393.35961 752.2042 392.73723 750.13827 392.11523 748.07227 C 391.83423 747.13827 391.55839 746.20153 391.27539 745.26953 C 390.36839 742.29053 389.44605 739.32328 388.49805 736.36328 C 377.53405 702.13028 359.23205 671.66477 339.62305 641.88477 C 336.97205 637.85977 334.05147 633.93619 331.98047 629.61719 C 328.12947 621.59119 321.28283 618.68608 313.29883 618.95508 C 303.20483 619.29608 294.54789 616.116 285.83789 611.5 C 274.85789 605.681 263.58981 600.28681 251.00781 598.50781 C 249.42981 598.28481 246.96669 596.90125 246.80469 595.78125 C 246.53869 593.95325 247.24675 591.09419 248.59375 590.11719 C 251.01975 588.35819 254.13323 587.10763 257.11523 586.64062 C 265.45123 585.33664 265.76036 585.24044 265.94336 577.02344 C 265.95236 576.61544 265.97386 576.21713 266.00586 575.82812 C 266.01686 575.69115 266.03678 575.56269 266.05078 575.42969 C 266.07678 575.18069 266.10072 574.93045 266.13672 574.68945 C 266.15972 574.52745 266.1927 574.37284 266.2207 574.21484 C 266.2567 574.01084 266.29194 573.80447 266.33594 573.60547 C 266.37394 573.43347 266.41889 573.26856 266.46289 573.10156 C 266.50789 572.92656 266.55056 572.74908 266.60156 572.58008 C 266.65456 572.40408 266.71639 572.23545 266.77539 572.06445 C 266.82839 571.91345 266.8795 571.76028 266.9375 571.61328 C 267.0055 571.43628 267.0822 571.2667 267.1582 571.0957 C 267.2182 570.9627 267.27584 570.82822 267.33984 570.69922 C 267.42584 570.52422 267.51833 570.3565 267.61133 570.1875 C 267.67533 570.0725 267.74059 569.95675 267.80859 569.84375 C 267.91259 569.67175 268.02372 569.5068 268.13672 569.3418 C 268.20372 569.2428 268.2737 569.14382 268.3457 569.04688 C 268.4687 568.87887 268.59842 568.71564 268.73242 568.55664 C 268.80342 568.47164 268.87522 568.38669 268.94922 568.30469 C 269.09422 568.14169 269.24344 567.98508 269.39844 567.83008 C 269.46944 567.76008 269.54319 567.68909 269.61719 567.62109 C 269.78419 567.46409 269.95772 567.31006 270.13672 567.16406 C 270.20772 567.10506 270.28152 567.04919 270.35352 566.99219 C 270.54452 566.84319 270.74131 566.69859 270.94531 566.55859 C 271.01331 566.51259 271.08334 566.46686 271.15234 566.42188 C 271.37034 566.27886 271.59222 566.14272 271.82422 566.01172 C 271.88522 565.97772 271.94972 565.94416 272.01172 565.91016 C 272.25972 565.77516 272.51139 565.64348 272.77539 565.52148 C 272.82539 565.49948 272.87873 565.47708 272.92773 565.45508 C 273.20973 565.32808 273.49685 565.20675 273.79688 565.09375 C 273.82686 565.08175 273.85963 565.07255 273.89062 565.06055 C 274.21362 564.94155 274.54467 564.82861 274.88867 564.72461 C 277.97267 564.28561 281.03717 563.86112 284.07617 563.45312 C 284.76317 563.45812 285.44309 563.49386 286.12109 563.54688 C 286.27309 563.55885 286.42615 563.57584 286.57812 563.58984 C 287.12613 563.64184 287.67089 563.70606 288.21289 563.78906 C 288.35489 563.81006 288.49667 563.83052 288.63867 563.85352 C 289.30067 563.96552 289.95928 564.09686 290.61328 564.25586 C 290.68628 564.27386 290.75803 564.29741 290.83203 564.31641 C 291.40503 564.46141 291.97502 564.62759 292.54102 564.80859 C 292.71202 564.86459 292.88273 564.91952 293.05273 564.97852 C 293.58673 565.16152 294.11748 565.36112 294.64648 565.57812 C 294.75248 565.62212 294.86175 565.66203 294.96875 565.70703 C 295.58975 565.97203 296.20631 566.26222 296.82031 566.57422 C 296.96731 566.64922 297.11377 566.73255 297.25977 566.81055 C 297.73877 567.06455 298.2145 567.33219 298.6875 567.61719 C 298.8585 567.72019 299.02727 567.82073 299.19727 567.92773 C 299.79727 568.30373 300.39436 568.69319 300.98438 569.11719 C 309.07538 574.93519 317.88591 579.0592 327.87891 580.1582 C 337.66691 581.2332 347.43516 582.12781 356.70312 577.25781 C 361.80012 574.57981 366.71402 575.48072 371.04102 579.26172 C 385.96502 592.30672 404.28891 598.39482 422.62891 604.42188 C 422.84391 604.49188 423.06511 604.54584 423.28711 604.58984 C 423.33511 604.59884 423.38364 604.60433 423.43164 604.61133 C 423.61764 604.64233 423.80414 604.66573 423.99414 604.67773 C 424.03514 604.68073 424.07814 604.67964 424.11914 604.68164 C 424.32814 604.69064 424.53986 604.68883 424.75586 604.67383 C 424.77786 604.67283 424.79927 604.67092 424.82227 604.66992 C 425.06627 604.65092 425.31345 604.61736 425.56445 604.56836 C 429.27067 607.42453 432.30555 609.73037 435.0625 611.80664 C 432.41799 608.46448 429.93413 605.57635 427.70508 603.81445 C 427.76408 603.78445 427.82281 603.76147 427.88281 603.73047 C 427.41981 603.48047 426.96295 603.22175 426.50195 602.96875 C 426.04795 602.68575 425.60179 602.44044 425.17188 602.27344 C 422.74786 601.09944 420.32244 599.926 417.89844 598.75 C 409.11944 594.211 394.70006 586.30492 381.28906 579.04492 C 380.84706 577.92992 380.75217 576.69644 381.07617 575.39844 C 381.59517 573.32544 383.83495 571.07498 385.87695 570.08398 C 418.15595 554.41698 450.51216 538.90923 482.91016 523.49023 C 485.20216 522.40123 487.95905 521.79973 490.49805 521.80273 C 504.19405 521.82173 517.69739 523.32005 530.40039 528.87305 C 534.21939 530.54205 536.15903 528.80925 537.45703 525.78125 C 538.88103 522.45825 537.83891 520.246 534.12891 519 C 528.94391 517.259 523.79044 515.29409 518.89844 512.87109 C 516.83044 511.84609 514.75058 509.69927 513.89258 507.57227 C 509.04858 495.56227 510.92619 482.92811 511.36719 470.53711 C 512.26819 445.24411 513.78383 419.9725 514.92383 394.6875 C 515.43983 383.2155 515.59702 371.72991 516.04102 360.25391 C 516.39502 351.12291 513.36655 343.32898 507.31055 336.58398 C 495.85655 323.82498 484.33794 311.1225 473.08594 298.1875 C 470.69194 295.4345 468.5877 291.99753 467.5957 288.51953 C 455.6077 246.50853 431.7757 212.3255 400.3457 182.4375 C 376.0657 159.3485 348.04164 145.75744 314.89062 142.77344 C 301.57214 141.575 288.10738 139.7654 274.79883 139.78516 z M 290.86719 148.6543 C 308.97973 148.44373 326.373 152.67325 342.84375 162.15625 C 374.86175 180.59025 397.15822 207.62497 412.07422 241.04297 C 414.46222 246.39597 415.93947 252.15683 417.60547 257.04883 C 413.20847 259.76183 410.02891 262.1413 406.50391 263.7793 C 403.02991 265.3943 399.24134 267.06847 395.52734 267.23047 C 391.49934 267.40647 387.2957 266.20658 383.3457 265.01758 C 357.5157 257.23958 331.98837 257.90333 306.48438 266.73633 C 302.30538 268.18333 297.39598 267.78622 292.83398 267.69922 C 291.62498 267.67622 289.71172 265.81819 289.38672 264.49219 C 286.98472 254.71719 290.51914 247.48998 299.61914 243.20898 C 302.15914 242.01298 304.8715 241.14836 307.5625 240.31836 C 313.8475 238.37936 316.35292 239.23275 320.41992 244.46875 C 323.96092 249.02475 327.79347 249.49014 332.98047 245.99414 C 336.83647 243.39514 337.54322 239.86467 334.69922 235.13867 C 333.26222 232.75167 331.34586 230.59475 329.38086 228.59375 C 319.89286 218.93275 307.97139 214.96772 294.77539 214.26172 C 274.47339 213.17672 254.15545 212.23425 234.68945 219.90625 C 229.20345 222.06925 223.86483 224.60127 217.92383 227.19727 C 216.06883 215.35327 215.80558 204.03241 218.26758 192.94141 C 222.30758 174.73641 232.25066 161.02145 250.72266 155.18945 C 257.79966 152.95545 265.18248 151.53245 272.52148 150.31445 C 278.71098 149.28745 284.82967 148.72448 290.86719 148.6543 z M 349.45508 153.32617 C 349.82272 153.30944 350.17672 153.34395 350.51172 153.43945 C 354.14572 154.47645 357.92878 155.46159 361.17578 157.30859 C 379.24678 167.58659 395.00944 180.85777 409.52344 195.63477 C 433.89444 220.44677 453.03598 248.63122 462.33398 282.44922 C 464.86498 291.65722 469.07444 298.98041 475.14844 305.94141 C 481.92244 313.70441 488.07131 322.01309 494.44531 330.12109 C 495.98731 332.08309 497.32075 334.67509 493.96875 335.74609 C 485.12475 338.57309 476.06981 341.18391 466.88281 337.25391 C 457.87581 333.40191 449.07984 329.06192 440.08984 325.16992 C 420.68084 316.76692 400.73813 310.93883 379.20312 312.67383 C 365.96513 313.74083 353.78802 317.1735 343.54102 326.1875 C 333.91002 334.6595 326.2337 344.65906 320.0957 355.78906 C 303.7597 385.41006 290.84756 416.54056 280.97656 448.85156 C 275.60356 466.43556 271.5953 484.43436 266.7793 502.19336 C 266.2613 504.10236 264.78641 506.70589 263.19141 507.21289 C 251.52741 510.91389 239.71958 514.16227 227.89258 517.57227 C 227.59958 507.63627 227.60572 507.66555 236.76172 505.43555 C 245.94472 503.19855 252.12863 498.8118 254.26562 488.3418 C 258.60263 467.0848 263.15791 445.79111 271.75391 425.66211 C 275.44491 417.01611 278.73403 408.19798 282.20703 399.45898 C 281.47603 398.82898 280.74662 398.19936 280.01562 397.56836 C 278.02864 400.21036 275.95108 402.78877 274.08008 405.50977 C 271.82108 408.79277 269.84053 412.27086 267.51953 415.50586 C 266.78053 416.53486 265.33584 417.05655 264.21484 417.81055 C 263.67784 416.68455 262.7195 415.57069 262.6875 414.42969 C 262.6085 411.61569 262.64473 408.72856 263.17773 405.97656 C 267.21773 385.13856 271.69166 364.37956 275.34766 343.47656 C 276.55966 336.55256 276.43989 329.20764 275.71289 322.18164 C 275.00189 315.31064 269.02419 313.17383 263.11719 316.92383 C 258.57219 319.80883 256.55273 324.22216 255.92773 329.41016 C 255.29173 334.69216 255.12683 340.10015 253.79883 345.20312 C 253.01583 348.21213 250.93069 352.15362 248.42969 353.14062 C 244.84269 354.55662 241.06636 352.28891 238.94336 348.50391 C 233.23636 338.32491 230.56222 327.27486 229.57422 315.75586 C 229.28922 312.43186 231.08741 311.12456 234.19141 309.85156 C 245.68641 305.13456 257.25575 300.43577 268.21875 294.63477 C 278.03475 289.44077 287.02328 282.70217 296.48828 276.82617 C 312.70928 266.75217 330.23677 261.19264 349.50977 262.68164 C 358.27077 263.35864 367.02612 264.42331 375.70312 265.82031 C 395.59413 269.02431 411.70939 277.4785 418.65039 298.0625 C 419.81639 301.5215 421.59855 304.836 422.31055 308.375 C 423.39255 313.756 426.41816 316.24641 432.41016 316.44141 C 430.40916 309.45941 428.44539 302.68067 426.52539 295.88867 C 424.95039 290.31467 422.82239 284.81005 422.02539 279.12305 C 420.92639 271.27305 423.31305 269.6962 430.74805 272.1582 C 433.30805 273.0062 435.91703 273.70425 438.70703 274.53125 C 436.22303 257.68025 421.27272 220.03344 414.63672 214.02344 C 414.26472 216.18944 413.92398 218.164 413.45898 220.875 C 396.64898 192.309 370.94817 173.88947 345.82617 154.48047 C 347.11542 153.87522 348.35216 153.37637 349.45508 153.32617 z M 437.98047 286.80469 C 437.20847 287.55669 435.93467 288.21008 435.76367 289.08008 C 435.32467 291.31708 434.52009 294.04591 435.37109 295.87891 C 439.72509 305.25991 444.44236 314.48052 449.31836 323.60352 C 450.25036 325.34752 452.46584 326.4043 454.08984 327.7793 C 454.66784 327.5213 455.24622 327.26291 455.82422 327.00391 C 455.21122 324.97991 454.85136 322.83308 453.94336 320.95508 C 450.76136 314.38708 447.19916 307.99719 444.16016 301.36719 C 442.38216 297.49019 441.38644 293.26214 439.89844 289.24414 C 439.55544 288.32114 438.63447 287.61169 437.98047 286.80469 z M 374.54102 335.69336 C 374.98854 335.69738 375.42514 335.77467 375.83789 335.93555 C 377.81289 336.70555 379.45944 340.15467 379.89844 342.63867 C 380.76244 347.51367 380.62595 352.55739 381.00195 357.52539 C 381.63195 365.85639 381.66545 365.85405 374.43945 368.87305 C 379.21945 368.29505 383.19256 368.67206 387.35156 372.41406 C 391.52356 376.16806 397.78278 377.48856 402.55078 380.72656 C 408.36378 384.67556 414.16506 384.81866 420.78906 382.97266 L 420.78906 373.95703 C 420.78906 365.64403 420.37858 357.29916 421.01758 349.03516 C 421.23858 346.18516 423.41914 342.26425 425.82812 341.03125 C 427.55428 340.14794 429.4065 339.77747 431.25586 339.83008 C 437.86071 340.01798 444.43124 345.60977 445.10938 352.57617 C 445.35136 355.06117 445.6268 357.54653 445.9668 360.01953 C 447.7918 373.30253 452.5033 384.97406 463.6543 393.41406 C 470.6823 398.73406 477.26255 404.64052 484.18555 410.10352 C 488.57555 413.56652 490.49566 418.07112 490.84766 423.45312 C 491.17266 428.42713 491.66303 433.40091 491.70703 438.37891 C 491.72003 439.73991 490.38978 441.11442 489.67578 442.48242 C 488.46478 441.60442 486.80414 440.98769 486.11914 439.80469 C 483.37414 435.06369 481.00694 430.10631 478.33594 425.32031 C 477.40994 423.66231 476.01017 422.26986 474.82617 420.75586 C 473.48317 422.07586 471.8378 423.20109 470.8418 424.74609 C 460.1998 441.24609 449.46327 457.69473 439.19727 474.42773 C 435.54927 480.37473 433.11386 487.06783 430.00586 493.67383 C 437.98686 495.67283 438.64055 495.25783 439.93555 489.17383 C 440.45155 486.74883 441.13048 484.34823 441.89648 481.99023 C 442.82948 479.11423 444.82087 478.28841 447.79688 479.19141 C 448.60388 485.07641 449.38273 490.75859 450.17773 496.55859 L 456.14062 496.55859 C 456.14063 491.68859 455.75813 486.84809 456.32812 482.12109 C 456.55813 480.22109 458.63673 477.41836 460.30273 477.06836 C 463.21873 476.45636 465.05852 478.73636 465.22852 481.94336 C 465.43852 485.93236 466.04569 489.92634 465.92969 493.90234 C 465.78069 498.96134 467.779 500.89142 473 499.73242 C 473.543 496.72242 473.75111 493.53644 474.78711 490.64844 C 475.34911 489.07944 477.3222 488.01756 478.6582 486.72656 C 480.1262 488.31156 482.39505 489.6873 482.87305 491.5293 C 483.59305 494.3083 483.0625 497.40995 483.0625 500.50195 C 485.8675 500.99295 488.25697 501.41198 490.66797 501.83398 C 491.37597 499.81198 491.61278 498.02763 492.55078 496.76562 C 493.52978 495.44763 495.18686 494.6307 496.54688 493.5957 C 497.37387 495.0327 498.5165 496.38269 498.9375 497.92969 C 499.3955 499.61369 499.18302 501.47959 499.29102 503.93359 C 506.90102 501.53059 509.46789 507.09405 512.58789 511.74805 C 514.43889 514.50905 512.78136 518.2222 509.44336 518.6582 C 507.98136 518.8492 506.45498 518.55961 504.95898 518.47461 C 488.84298 517.56061 472.73433 516.53259 456.61133 515.80859 C 452.77733 515.63659 450.60552 514.22775 448.85352 510.84375 C 447.57252 508.36975 445.14923 506.48528 442.36523 503.36328 C 441.53423 508.26628 441.01691 511.32561 440.50391 514.34961 C 439.95191 514.34961 439.59855 514.43398 439.31055 514.33398 C 437.27255 513.62498 435.22975 512.92067 433.21875 512.13867 C 405.32275 501.28367 376.96834 492.11608 347.15234 488.08008 C 339.07334 486.98508 338.13652 485.32116 339.85352 477.53516 C 341.93252 477.62916 344.13403 477.43909 346.20703 477.87109 C 360.16503 480.77609 374.14991 483.5885 388.00391 486.9375 C 392.44791 488.0115 394.92734 487.3837 396.27734 482.4707 C 393.71034 481.2147 391.24231 479.90539 388.69531 478.77539 C 368.96031 470.02739 349.17733 461.38116 329.48633 452.53516 C 325.41533 450.70516 321.50884 448.39356 317.83984 445.85156 C 316.46284 444.89856 315.27156 442.62258 315.35156 441.01758 C 315.39856 440.07058 318.1827 438.40311 319.5957 438.53711 C 324.2947 438.98311 329.2452 439.3288 333.5332 441.0918 C 349.3572 447.5968 364.98137 454.59245 380.60938 461.56445 C 383.32438 462.77545 384.87364 462.71156 386.76562 460.10156 C 395.29462 448.32956 406.46164 439.34898 418.64062 431.70898 C 425.79564 427.22098 433.92925 424.61322 442.40625 426.82422 C 446.66825 427.93622 450.43709 430.93423 454.49609 433.11523 C 457.43609 429.53423 457.51459 429.43583 454.55859 426.54883 C 444.94459 417.15583 435.26884 407.8248 424.83984 397.7168 C 418.84784 400.7028 411.85527 404.09339 404.94727 407.65039 C 394.81527 412.86639 385.03247 413.2388 374.48047 407.9668 C 364.73047 403.0948 354.25316 399.66191 344.03516 395.75391 C 339.70216 394.09691 335.14731 393.01961 330.82031 391.34961 C 327.26831 389.97961 326.62463 387.38253 327.76562 383.64453 C 328.91163 379.88553 331.19686 379.66064 334.25586 380.18164 C 336.87686 380.62964 339.48791 381.21536 342.12891 381.44336 C 345.63891 381.74736 348.82059 381.55694 349.30859 376.71094 C 349.42159 375.58994 351.53289 374.13944 352.96289 373.77344 C 360.13089 371.94044 367.3757 370.41911 374.5957 368.78711 L 374.43945 368.87305 C 374.43945 368.87305 374.59542 368.7882 374.60742 368.7832 C 371.79242 368.8162 368.96663 368.88481 366.14062 368.88281 C 358.77762 368.87881 353.37172 365.65328 350.38672 358.86328 C 349.72972 357.36828 349.31208 354.23236 349.70508 354.06836 C 351.74008 353.22336 354.1263 352.65902 356.2793 352.91602 C 357.2763 353.03502 358.16175 355.17534 358.84375 356.52734 C 359.51275 357.85234 359.85675 359.33986 360.34375 360.75586 C 362.01075 356.57386 360.80414 351.36141 367.24414 352.19141 C 367.24414 348.77641 366.95841 345.6172 367.31641 342.5332 C 367.70316 339.20908 371.40835 335.6652 374.54102 335.69336 z M 243.63281 561.82812 C 244.05583 561.83016 244.46288 561.86534 244.82812 561.93359 C 250.23613 562.94759 253.88714 567.7157 253.99414 574.0957 C 254.78814 577.5727 252.14708 579.67686 249.20508 581.88086 C 245.39808 584.73186 241.47509 587.60844 238.37109 591.14844 C 236.22809 593.59244 234.22623 594.06209 231.49023 593.49609 C 222.75023 591.68609 219.86812 584.59256 225.57812 577.60156 C 229.95112 572.24856 235.15852 567.5495 240.22852 562.8125 C 240.96502 562.12475 242.36377 561.82204 243.63281 561.82812 z M 385.29688 602.14258 C 385.29688 605.94858 384.82697 609.62886 385.41797 613.13086 C 386.13497 617.38186 384.92844 618.9207 380.64844 618.8457 C 369.84644 618.6567 359.04228 618.7013 348.23828 618.6543 C 347.25428 618.6503 346.26928 618.6543 344.86328 618.6543 C 346.05228 622.9373 347.48833 626.51317 352.36133 627.32617 C 354.81633 627.73517 357.22064 628.62025 359.68164 628.78125 C 368.29064 629.34625 373.68858 634.53558 378.89258 640.76758 C 389.41358 653.36858 394.22148 668.6548 399.64648 683.5918 C 409.27348 710.1008 418.32288 736.81969 427.67188 763.42969 C 427.79088 763.76869 427.90468 764.09025 428.01562 764.40625 C 428.04262 764.48225 428.0687 764.55681 428.0957 764.63281 C 428.1837 764.88381 428.27047 765.12633 428.35547 765.36133 C 428.38247 765.43533 428.40955 765.50998 428.43555 765.58398 C 428.52155 765.82198 428.60645 766.05339 428.68945 766.27539 C 428.71045 766.33039 428.73195 766.38741 428.75195 766.44141 C 428.95895 766.99541 429.15752 767.5048 429.35352 767.9668 C 429.36352 767.9908 429.37477 768.01311 429.38477 768.03711 C 429.47077 768.23811 429.55562 768.43123 429.64062 768.61523 C 429.65862 768.65523 429.67631 768.69442 429.69531 768.73242 C 429.77631 768.90642 429.85941 769.07147 429.94141 769.23047 C 429.95641 769.25947 429.97133 769.29131 429.98633 769.32031 C 430.05433 769.44931 430.12241 769.57336 430.19141 769.69336 L 431.00195 771.28516 C 434.92944 771.27246 437.41178 771.26449 441.28711 771.25195 L 441.03711 770.69336 C 440.38311 768.99136 439.73294 767.29728 439.08594 765.61328 C 437.41694 761.26928 435.76467 756.96802 434.13867 752.66602 C 424.16867 726.27002 414.18383 699.87822 404.29883 673.44922 C 402.96683 669.88722 401.90422 666.17541 401.19922 662.44141 C 400.47722 658.61341 402.40291 655.89381 406.37891 656.50781 C 409.65691 657.01481 413.2773 658.19491 415.7793 660.25391 C 422.1433 665.49191 429.00369 668.18142 437.30469 667.73242 C 446.78069 667.21942 454.46277 671.18628 458.88477 679.48828 C 470.74777 701.75928 482.19259 724.25566 493.68359 746.72266 C 497.38659 753.96366 500.78359 761.36777 504.18359 768.75977 C 504.52459 769.49977 504.89445 770.14036 505.31445 770.69336 L 505.56445 771.03906 C 556.37 770.87036 597.27997 770.72806 598.07031 770.68945 C 595.17531 760.24345 592.99222 750.35652 589.69922 740.85352 C 579.29222 710.82352 562.73614 684.99422 537.11914 665.44922 C 531.59614 661.23522 525.72577 659.17148 518.88477 658.52148 C 511.97777 657.86448 505.13841 656.35333 498.31641 654.98633 C 494.87141 654.29533 492.47225 652.12459 493.03125 648.30859 C 493.63325 644.20059 496.29514 641.32314 500.49414 641.86914 C 503.93614 642.31614 507.3688 643.92386 510.4668 645.63086 C 514.2438 647.71286 517.69891 650.30503 522.37891 648.58203 C 522.14391 647.63003 521.88805 646.71436 521.62305 645.81836 C 521.53605 645.52536 521.44547 645.24208 521.35547 644.95508 C 521.16947 644.35908 520.97444 643.77508 520.77344 643.20508 C 520.65944 642.88508 520.54573 642.56591 520.42773 642.25391 C 520.22573 641.71791 520.01386 641.1995 519.79688 640.6875 C 519.67687 640.4015 519.55859 640.10517 519.43359 639.82617 C 519.11759 639.12617 518.78741 638.44985 518.44141 637.79688 C 518.25841 637.44888 518.06114 637.12016 517.86914 636.78516 C 517.67914 636.45516 517.49097 636.12655 517.29297 635.81055 C 517.06297 635.44155 516.82498 635.08442 516.58398 634.73242 C 516.41598 634.48742 516.24236 634.24872 516.06836 634.01172 C 515.79236 633.63772 515.51561 633.2622 515.22461 632.9082 C 515.13661 632.8012 515.04117 632.7007 514.95117 632.5957 C 514.21317 631.7227 513.42884 630.90725 512.58984 630.15625 C 512.57584 630.14325 512.56187 630.12923 512.54688 630.11523 C 512.12788 629.74223 511.68914 629.39283 511.24414 629.04883 C 511.15214 628.97883 511.06175 628.90689 510.96875 628.83789 C 510.50675 628.49189 510.03102 628.15775 509.54102 627.84375 C 509.52802 627.83675 509.51691 627.83027 509.50391 627.82227 C 505.95191 625.55327 501.63983 624.09577 496.42383 623.38477 C 496.26883 623.36377 496.11303 623.34227 495.95703 623.32227 C 495.30403 623.23927 494.64294 623.16352 493.96094 623.10352 C 493.95894 623.10252 493.95608 623.10352 493.95508 623.10352 C 493.14908 623.03252 492.34405 622.96283 491.49805 622.92383 C 476.24465 622.22056 460.97272 621.8996 445.69727 621.68359 C 438.89264 621.58924 432.08955 621.50555 425.28711 621.42969 C 422.07311 621.39269 418.85753 621.35736 415.64453 621.31836 C 411.28653 621.26436 408.29682 620.37694 405.79688 616.46094 C 401.12788 609.14894 394.89988 603.58758 385.29688 602.14258 z "
   id="path2" />
<g
   id="g28"
   transform="translate(0,-6.9205218e-5)">
	<g
   id="g14"
   transform="matrix(-1,0,0,1,857.05896,-67.306978)">
		
		
		
		
		
	</g>
	
	
	
	<path
   d="m 343.30299,704.62502 c 5.982,18.283 12.138,36.512 17.986,54.838 0.167,0.524 0.321,1.053 0.465,1.585"
   id="path22"
   inkscape:connector-curvature="0"
   style="fill:#ffffff" />
	
	
<g
   aria-label="use the
kotlin"
   transform="translate(-53.931702,72.57135)"
   style="font-style:normal;font-weight:normal;font-size:40px;line-height:1.25;font-family:sans-serif;letter-spacing:0px;word-spacing:0px;fill:#000000;fill-opacity:1;stroke:none"
   id="flowRoot842"><path
     d="m 738.25262,212.90763 v 111.19791 q -0.78125,19.01041 7.29167,26.43229 8.07292,7.42187 25.26042,7.94271 13.80208,-0.26042 23.04687,-8.07292 9.24479,-7.8125 8.72396,-26.30208 V 212.90763 h 61.19791 v 110.28645 q -0.39062,23.4375 -7.8125,37.5 -7.29166,13.93229 -18.61979,23.30729 -11.19791,9.375 -28.25521,14.58333 -16.92708,5.20834 -37.76041,5.72917 -17.31771,-0.39063 -35.28646,-4.6875 -17.83854,-4.42708 -31.25,-13.80208 -13.28125,-9.375 -20.57291,-24.08854 -7.16146,-14.71355 -7.16146,-38.41146 V 212.90763 Z"
     style="font-style:normal;font-variant:normal;font-weight:normal;font-stretch:normal;font-size:266.66665649px;line-height:1;font-family:'Star Jedi';-inkscape-font-specification:'Star Jedi, Normal';font-variant-ligatures:normal;font-variant-caps:normal;font-variant-numeric:normal;font-feature-settings:normal;text-align:center;letter-spacing:0px;word-spacing:0px;writing-mode:lr-tb;text-anchor:middle"
     id="path879" /><path
     d="m 1021.0651,268.89721 h -45.83332 q -33.46354,-1.04167 -9.89583,18.48958 42.18745,36.97917 41.40625,71.875 -0.7813,34.89583 -41.40625,41.66666 h -100 v -55.98958 h 39.58334 q 36.84895,1.04167 9.375,-20.57291 -45.3125,-41.66667 -38.54167,-76.5625 6.77083,-34.89583 42.70833,-34.89583 h 102.60415 z"
     style="font-style:normal;font-variant:normal;font-weight:normal;font-stretch:normal;font-size:266.66665649px;line-height:1;font-family:'Star Jedi';-inkscape-font-specification:'Star Jedi, Normal';font-variant-ligatures:normal;font-variant-caps:normal;font-variant-numeric:normal;font-feature-settings:normal;text-align:center;letter-spacing:0px;word-spacing:0px;writing-mode:lr-tb;text-anchor:middle"
     id="path881" /><path
     d="M 1021.0651,400.92845 V 212.90763 h 161.1979 v 55.98958 h -100 v 21.61458 h 64.5834 v 32.8125 h -64.5834 v 21.61458 h 115.8855 v 55.98958 z"
     style="font-style:normal;font-variant:normal;font-weight:normal;font-stretch:normal;font-size:266.66665649px;line-height:1;font-family:'Star Jedi';-inkscape-font-specification:'Star Jedi, Normal';font-variant-ligatures:normal;font-variant-caps:normal;font-variant-numeric:normal;font-feature-settings:normal;text-align:center;letter-spacing:0px;word-spacing:0px;writing-mode:lr-tb;text-anchor:middle"
     id="path883" /><path
     d="m 1493.4609,212.90763 v 55.98958 h -59.6354 v 132.03124 h -61.1979 V 268.89721 h -59.6354 v -55.98958 z"
     style="font-style:normal;font-variant:normal;font-weight:normal;font-stretch:normal;font-size:266.66665649px;line-height:1;font-family:'Star Jedi';-inkscape-font-specification:'Star Jedi, Normal';font-variant-ligatures:normal;font-variant-caps:normal;font-variant-numeric:normal;font-feature-settings:normal;text-align:center;letter-spacing:0px;word-spacing:0px;writing-mode:lr-tb;text-anchor:middle"
     id="path885" /><path
     d="m 1608.0442,277.75137 v -64.84374 h 61.198 v 188.02082 h -61.198 v -67.70833 h -49.2187 v 67.70833 h -61.1979 V 212.90763 h 61.1979 v 64.84374 z"
     style="font-style:normal;font-variant:normal;font-weight:normal;font-stretch:normal;font-size:266.66665649px;line-height:1;font-family:'Star Jedi';-inkscape-font-specification:'Star Jedi, Normal';font-variant-ligatures:normal;font-variant-caps:normal;font-variant-numeric:normal;font-feature-settings:normal;text-align:center;letter-spacing:0px;word-spacing:0px;writing-mode:lr-tb;text-anchor:middle"
     id="path887" /><path
     d="M 1682.5234,400.92845 V 212.90763 h 161.1979 v 55.98958 h -99.9999 v 21.61458 h 64.5833 v 32.8125 h -64.5833 v 21.61458 h 115.8854 v 55.98958 z"
     style="font-style:normal;font-variant:normal;font-weight:normal;font-stretch:normal;font-size:266.66665649px;line-height:1;font-family:'Star Jedi';-inkscape-font-specification:'Star Jedi, Normal';font-variant-ligatures:normal;font-variant-caps:normal;font-variant-numeric:normal;font-feature-settings:normal;text-align:center;letter-spacing:0px;word-spacing:0px;writing-mode:lr-tb;text-anchor:middle"
     id="path889" /><path
     d="m 763.34377,481.90008 v 70.3776 l 49.41406,-70.3776 h 70.3776 l -80.55989,108.11197 35.93749,43.72396 h 64.6875 v 64.38802 h -85.35156 l -54.5052,-64.38802 v 64.38802 H 692.96616 V 481.90008 Z"
     style="font-style:normal;font-variant:normal;font-weight:normal;font-stretch:normal;font-size:306.66665649px;line-height:1;font-family:'Star Jedi';-inkscape-font-specification:'Star Jedi, Normal';font-variant-ligatures:normal;font-variant-caps:normal;font-variant-numeric:normal;font-feature-settings:normal;text-align:center;letter-spacing:0px;word-spacing:0px;writing-mode:lr-tb;text-anchor:middle"
     id="path891" /><path
     d="m 1143.9818,591.20997 q 0,35.48828 -14.8242,60.49479 -14.8243,25.00651 -42.9753,37.58463 -28.0013,12.57813 -66.9336,12.57813 -38.93228,0 -66.93358,-12.57813 -27.85156,-12.72786 -42.22656,-37.43489 -14.375,-24.85677 -14.375,-60.64453 0,-27.10287 8.23568,-47.61719 8.23567,-20.66406 24.10807,-34.73958 15.8724,-14.07552 38.93229,-21.26302 23.0599,-7.33724 52.2591,-7.33724 38.7826,0 66.9336,12.8776 28.151,12.72787 42.9753,37.73438 14.8242,24.85677 14.8242,60.34505 z m -171.45184,0.59896 q 0,20.8138 9.28386,36.23697 9.43359,15.42318 36.98568,15.42318 21.263,0 31.7448,-8.08594 10.6315,-8.08593 13.1771,-18.41797 2.6953,-10.48177 3.5937,-25.15624 -0.8984,-20.81381 -10.0325,-36.23698 -9.1341,-15.57292 -38.4831,-15.57292 -46.26954,0 -46.26954,51.8099 z"
     style="font-style:normal;font-variant:normal;font-weight:normal;font-stretch:normal;font-size:306.66665649px;line-height:1;font-family:'Star Jedi';-inkscape-font-specification:'Star Jedi, Normal';font-variant-ligatures:normal;font-variant-caps:normal;font-variant-numeric:normal;font-feature-settings:normal;text-align:center;letter-spacing:0px;word-spacing:0px;writing-mode:lr-tb;text-anchor:middle"
     id="path893" /><path
     d="m 1351.2214,481.90008 v 64.38801 h -68.5808 V 698.12403 H 1212.263 V 546.28809 h -68.5807 v -64.38801 z"
     style="font-style:normal;font-variant:normal;font-weight:normal;font-stretch:normal;font-size:306.66665649px;line-height:1;font-family:'Star Jedi';-inkscape-font-specification:'Star Jedi, Normal';font-variant-ligatures:normal;font-variant-caps:normal;font-variant-numeric:normal;font-feature-settings:normal;text-align:center;letter-spacing:0px;word-spacing:0px;writing-mode:lr-tb;text-anchor:middle"
     id="path895" /><path
     d="M 1359.0078,698.12403 V 481.90008 h 70.3776 v 151.83593 h 117.0963 v 64.38802 z"
     style="font-style:normal;font-variant:normal;font-weight:normal;font-stretch:normal;font-size:306.66665649px;line-height:1;font-family:'Star Jedi';-inkscape-font-specification:'Star Jedi, Normal';font-variant-ligatures:normal;font-variant-caps:normal;font-variant-numeric:normal;font-feature-settings:normal;text-align:center;letter-spacing:0px;word-spacing:0px;writing-mode:lr-tb;text-anchor:middle"
     id="path897" /><path
     d="m 1552.4714,481.90008 h 70.3776 v 216.22395 h -70.3776 z"
     style="font-style:normal;font-variant:normal;font-weight:normal;font-stretch:normal;font-size:306.66665649px;line-height:1;font-family:'Star Jedi';-inkscape-font-specification:'Star Jedi, Normal';font-variant-ligatures:normal;font-variant-caps:normal;font-variant-numeric:normal;font-feature-settings:normal;text-align:center;letter-spacing:0px;word-spacing:0px;writing-mode:lr-tb;text-anchor:middle"
     id="path899" /><path
     d="M 1638.1224,698.12403 V 481.90008 H 1708.5 l 64.388,80.85937 v -80.85937 h 70.3776 V 698.12403 H 1772.888 L 1708.5,617.26465 v 80.85938 z"
     style="font-style:normal;font-variant:normal;font-weight:normal;font-stretch:normal;font-size:306.66665649px;line-height:1;font-family:'Star Jedi';-inkscape-font-specification:'Star Jedi, Normal';font-variant-ligatures:normal;font-variant-caps:normal;font-variant-numeric:normal;font-feature-settings:normal;text-align:center;letter-spacing:0px;word-spacing:0px;writing-mode:lr-tb;text-anchor:middle"
     id="path901" /></g><flowRoot
   transform="translate(-15.279854,3.1325926)"
   style="font-style:normal;font-weight:normal;font-size:40px;line-height:1.25;font-family:sans-serif;letter-spacing:0px;word-spacing:0px;fill:#000000;fill-opacity:1;stroke:none"
   id="flowRoot873"
   xml:space="preserve"><flowRegion
     id="flowRegion867"><rect
       y="197.40205"
       x="667.89233"
       height="709.31201"
       width="1612.7787"
       id="rect865" /></flowRegion><flowPara
     style="font-style:normal;font-variant:normal;font-weight:normal;font-stretch:normal;font-size:266.66665649px;font-family:'Star Jedi';-inkscape-font-specification:'Star Jedi, Normal';font-variant-ligatures:normal;font-variant-caps:normal;font-variant-numeric:normal;font-feature-settings:normal;text-align:start;writing-mode:lr-tb;text-anchor:start"
     id="flowPara869" /><flowPara
     style="font-style:normal;font-variant:normal;font-weight:normal;font-stretch:normal;font-size:266.66665649px;font-family:'Star Jedi';-inkscape-font-specification:'Star Jedi, Normal';font-variant-ligatures:normal;font-variant-caps:normal;font-variant-numeric:normal;font-feature-settings:normal;text-align:start;writing-mode:lr-tb;text-anchor:start"
     id="flowPara871" /></flowRoot></g>
</svg>