<?xml version="1.0" encoding="UTF-8"?>
<!-- Generator: Adobe Illustrator 16.0.0, SVG Export Plug-In . SVG Version: 6.00 Build 0)  -->
<!DOCTYPE svg PUBLIC "-//W3C//DTD SVG 1.1//EN" "http://www.w3.org/Graphics/SVG/1.1/DTD/svg11.dtd">
<svg version="1.1" id="Layer_1" xmlns="http://www.w3.org/2000/svg" xmlns:xlink="http://www.w3.org/1999/xlink" x="0px" y="0px" width="864px" height="864px" viewBox="0 0 864 864" enable-background="new 0 0 864 864" xml:space="preserve" data-lt-installed="true">
<path fill-rule="evenodd" clip-rule="evenodd" d="M843.975,710.723c-0.003-1.664-0.688-4.254-1.852-4.847  c-11.611-5.917-19.879-15.456-28.166-25.061c-10.794-12.508-23.439-22.702-38.758-29.125c-4.062-1.703-5.115-4.414-5.01-8.094  c0.103-3.58,2.455-5.282,5.789-5.749c2.461-0.344,4.936-0.732,7.413-0.81c11.844-0.369,22.369-4.44,31.979-11.161  c3.36-2.35,4.39-4.646,2.29-9.054c-25.646-53.84-52.22-107.287-71.717-163.819c-2.699-7.826-6.593-15.564-7.499-23.618  c-1.951-17.344-2.406-34.863-3.31-52.318c-1.111-21.448-1.866-42.916-3.116-64.354c-1.649-28.281-13.524-51.712-35.697-69.193  c-30.623-24.144-67-33.243-104.875-36.092c-16.271-1.224-32.885,1.178-49.277,2.653c-33.151,2.984-61.176,16.575-85.456,39.664  c-31.43,29.888-55.262,64.07-67.25,106.081c-0.992,3.478-3.095,6.915-5.489,9.668c-11.252,12.935-22.771,25.638-34.225,38.397  c-6.056,6.745-9.085,14.538-8.731,23.669c0.444,11.476,0.602,22.963,1.118,34.435c1.14,25.285,2.654,50.557,3.555,75.85  c0.441,12.391,2.32,25.025-2.524,37.035c-0.858,2.127-2.939,4.273-5.007,5.298c-4.892,2.423-10.044,4.389-15.229,6.13  c-3.71,1.246-4.753,3.457-3.329,6.78c1.298,3.028,3.237,4.762,7.056,3.093c12.703-5.553,26.206-7.053,39.902-7.072  c2.539-0.003,5.296,0.6,7.588,1.689c32.398,15.419,64.755,30.926,97.034,46.593c2.042,0.991,4.282,3.242,4.801,5.315  c0.324,1.298,0.229,2.53-0.213,3.645c-13.411,7.26-27.83,15.167-36.609,19.706c-2.424,1.176-4.849,2.35-7.273,3.524  c-0.43,0.167-0.876,0.412-1.33,0.695c-0.461,0.253-0.919,0.511-1.382,0.761c0.06,0.031,0.118,0.055,0.177,0.085  c-4.261,3.368-9.418,10.768-14.947,17.821c-16.291,0.216-32.579,0.537-48.846,1.287c-0.846,0.039-1.651,0.109-2.457,0.18  c-0.001,0-0.003,0-0.005,0.001c-0.682,0.06-1.344,0.135-1.997,0.218c-0.156,0.02-0.311,0.041-0.466,0.062  c-5.216,0.711-9.527,2.169-13.079,4.438c-0.013,0.008-0.025,0.015-0.038,0.022c-0.49,0.314-0.965,0.647-1.427,0.993  c-0.093,0.069-0.185,0.141-0.277,0.211c-0.445,0.344-0.883,0.695-1.302,1.068c-0.015,0.014-0.029,0.028-0.043,0.041  c-0.839,0.751-1.624,1.566-2.362,2.439c-0.09,0.105-0.185,0.206-0.273,0.313c-0.291,0.354-0.567,0.728-0.843,1.102  c-0.174,0.237-0.348,0.476-0.516,0.721c-0.241,0.352-0.479,0.709-0.709,1.078c-0.198,0.316-0.387,0.646-0.577,0.976  c-0.192,0.335-0.389,0.662-0.572,1.01c-0.346,0.653-0.676,1.331-0.992,2.031c-0.125,0.279-0.242,0.574-0.362,0.86  c-0.217,0.512-0.43,1.031-0.632,1.567c-0.118,0.312-0.232,0.632-0.346,0.952c-0.201,0.57-0.395,1.154-0.581,1.75  c-0.09,0.287-0.182,0.569-0.269,0.862c-0.265,0.896-0.519,1.812-0.754,2.764c4.68,1.723,8.134-0.87,11.911-2.952  c3.098-1.707,6.53-3.313,9.972-3.76c4.199-0.546,6.861,2.331,7.463,6.439c0.559,3.816-1.839,5.986-5.284,6.677  c-6.822,1.367-13.661,2.878-20.568,3.535c-6.841,0.65-12.712,2.714-18.235,6.928c-25.617,19.545-42.174,45.375-52.581,75.405  c-3.293,9.503-5.476,19.39-8.371,29.836c2.928,0.143,530.108,2,530.108,2h54.602l-1.93-3.26c0.645,0,1.285,0,1.93,0  c0.099-2.104,0.226-3.571,0.228-5.039C843.976,791.375,844.035,751.049,843.975,710.723z"/>
<g>
	<g>
		<path fill="#FFFFFF" d="M574.851,466.767c3.473,8.739,6.764,17.557,10.455,26.203c8.596,20.129,13.151,41.421,17.488,62.678    c2.137,10.47,8.32,14.857,17.503,17.094c9.156,2.23,9.163,2.201,8.87,12.137c-11.827-3.41-23.636-6.659-35.3-10.36    c-1.595-0.507-3.07-3.11-3.588-5.019c-4.816-17.759-8.824-35.757-14.197-53.341c-9.871-32.311-22.782-63.441-39.118-93.062    c-6.138-11.13-13.815-21.13-23.446-29.602c-10.247-9.014-22.424-12.447-35.662-13.514c-21.535-1.735-41.478,4.092-60.887,12.495    c-8.99,3.892-17.786,8.233-26.793,12.085c-9.187,3.93-18.241,1.319-27.085-1.508c-3.352-1.071-2.02-3.663-0.478-5.625    c6.374-8.108,12.523-16.417,19.297-24.18c6.074-6.961,10.283-14.283,12.814-23.491c9.298-33.818,28.44-62.004,52.811-86.816    c14.514-14.777,30.278-28.047,48.349-38.325c3.247-1.847,7.03-2.833,10.664-3.87c1.34-0.382,2.965,0.235,4.684,1.042    c-25.122,19.409-50.823,37.828-67.633,66.394c-0.465-2.711-0.804-4.686-1.176-6.852c-6.636,6.01-21.587,43.657-24.071,60.508    c2.79-0.827,5.399-1.525,7.959-2.373c7.435-2.462,9.821-0.885,8.722,6.965c-0.797,5.687-2.925,11.191-4.5,16.765    c-1.92,6.792-3.883,13.572-5.884,20.554c5.992-0.195,9.018-2.686,10.1-8.067c0.712-3.539,2.493-6.853,3.659-10.312    c6.941-20.584,23.057-29.038,42.948-32.242c8.677-1.397,17.432-2.462,26.193-3.139c19.273-1.489,36.801,4.071,53.022,14.145    c9.465,5.876,18.453,12.613,28.269,17.807c10.963,5.801,22.533,10.5,34.028,15.217c3.104,1.273,4.901,2.581,4.616,5.905    c-0.988,11.519-3.661,22.568-9.368,32.747c-2.123,3.785-5.9,6.054-9.487,4.638c-2.501-0.987-4.586-4.929-5.369-7.938    c-1.328-5.103-1.492-10.51-2.128-15.792c-0.625-5.188-2.645-9.603-7.19-12.488c-5.907-3.75-11.885-1.612-12.596,5.259    c-0.727,7.026-0.847,14.37,0.365,21.294c3.656,20.903,8.13,41.662,12.17,62.5c0.533,2.752,0.57,5.64,0.491,8.454    c-0.032,1.141-0.991,2.255-1.528,3.381c-1.121-0.754-2.565-1.276-3.304-2.305c-2.321-3.235-4.303-6.714-6.562-9.997    c-1.871-2.721-3.948-5.299-5.935-7.941C576.312,465.506,575.582,466.137,574.851,466.767z M401.235,394.31    c0.578,0.259,1.156,0.518,1.734,0.776c1.624-1.375,3.84-2.432,4.772-4.176c4.876-9.123,9.592-18.343,13.946-27.724    c0.851-1.833,0.048-4.562-0.391-6.799c-0.171-0.87-1.445-1.523-2.217-2.275c-0.654,0.807-1.575,1.516-1.918,2.439    c-1.488,4.018-2.485,8.247-4.263,12.124c-3.039,6.63-6.601,13.019-9.783,19.587C402.207,390.14,401.848,392.286,401.235,394.31z"/>
		<path fill="#FFFFFF" d="M439.454,324.355c1.666-4.892,3.143-10.652,5.531-16.005c14.916-33.418,37.212-60.452,69.23-78.886    c21.961-12.644,45.564-15.95,70.322-11.842c7.339,1.218,14.723,2.64,21.8,4.874c18.472,5.832,28.414,19.547,32.454,37.752    c2.462,11.091,2.2,22.412,0.345,34.256c-5.941-2.596-11.281-5.127-16.767-7.29c-19.466-7.672-39.783-6.731-60.085-5.646    c-13.196,0.706-25.118,4.672-34.606,14.333c-1.965,2.001-3.882,4.157-5.319,6.544c-2.844,4.726-2.137,8.257,1.719,10.856    c5.187,3.496,9.021,3.031,12.562-1.525c4.067-5.236,6.572-6.09,12.857-4.151c2.691,0.83,5.403,1.696,7.943,2.892    c9.1,4.281,12.634,11.508,10.232,21.283c-0.325,1.326-2.239,3.183-3.448,3.206c-4.562,0.087-9.47,0.484-13.649-0.963    c-25.504-8.833-51.032-9.497-76.862-1.719c-3.95,1.189-8.154,2.39-12.182,2.214c-3.714-0.162-7.501-1.836-10.975-3.451    C447.031,329.449,443.851,327.068,439.454,324.355z"/>
		<path fill="#FFFFFF" d="M482.463,436.095c7.22,1.632,14.466,3.153,21.634,4.986c1.43,0.366,3.541,1.816,3.654,2.937    c0.488,4.846,3.67,5.037,7.18,4.733c2.641-0.228,5.252-0.814,7.873-1.262c3.059-0.521,5.344-0.297,6.49,3.462    c1.141,3.738,0.497,6.335-3.055,7.705c-4.327,1.67-8.882,2.748-13.215,4.405c-10.218,3.908-20.695,7.34-30.445,12.212    c-10.552,5.272-20.336,4.9-30.468-0.316c-6.908-3.557-13.9-6.948-19.892-9.934c-10.429,10.108-20.104,19.439-29.718,28.832    c-2.956,2.887-2.879,2.987,0.061,6.568c4.059-2.181,7.828-5.179,12.09-6.291c8.477-2.211,16.611,0.396,23.766,4.884    c12.179,7.64,23.346,16.621,31.875,28.393c1.892,2.61,3.442,2.674,6.157,1.463c15.628-6.972,31.252-13.968,47.076-20.473    c4.288-1.763,9.238-2.109,13.937-2.555c1.413-0.134,4.197,1.534,4.244,2.481c0.08,1.605-1.111,3.881-2.488,4.834    c-3.669,2.542-7.576,4.854-11.647,6.684c-19.691,8.846-39.473,17.492-59.208,26.24c-2.547,1.13-5.015,2.438-7.582,3.694    c1.35,4.913,3.829,5.542,8.273,4.468c13.854-3.349,27.839-6.162,41.797-9.067c2.073-0.432,4.275-0.242,6.354-0.336    c1.717,7.786,0.779,9.451-7.3,10.546c-29.816,4.036-58.17,13.203-86.066,24.058c-2.011,0.782-4.053,1.487-6.091,2.196    c-0.288,0.1-0.641,0.014-1.193,0.014c-0.513-3.024-1.032-6.083-1.863-10.986c-2.784,3.122-5.206,5.006-6.487,7.48    c-1.752,3.384-3.925,4.793-7.759,4.965c-16.123,0.724-32.232,1.752-48.348,2.666c-1.496,0.085-3.022,0.375-4.484,0.184    c-3.338-0.436-4.995-4.148-3.144-6.909c3.12-4.654,5.686-10.219,13.296-7.816c0.108-2.454-0.104-4.32,0.354-6.004    c0.421-1.547,1.565-2.896,2.392-4.333c1.36,1.035,3.017,1.851,3.996,3.169c0.938,1.262,1.174,3.047,1.882,5.069    c2.411-0.422,4.801-0.841,7.606-1.332c0-3.092-0.532-6.194,0.188-8.973c0.478-1.842,2.748-3.218,4.216-4.803    c1.336,1.291,3.309,2.354,3.871,3.923c1.036,2.888,1.243,6.073,1.786,9.083c5.221,1.159,7.22-0.771,7.071-5.83    c-0.116-3.976,0.492-7.969,0.702-11.958c0.17-3.207,2.01-5.487,4.926-4.875c1.666,0.35,3.744,3.152,3.974,5.052    c0.57,4.727,0.188,9.567,0.188,14.437c2.181,0,3.797,0,5.963,0c0.795-5.8,1.574-11.482,2.381-17.367    c2.976-0.903,4.966-0.076,5.899,2.8c0.766,2.358,1.446,4.758,1.962,7.183c1.295,6.084,1.948,6.498,9.929,4.499    c-3.108-6.606-5.544-13.299-9.192-19.246c-10.266-16.733-21.002-33.18-31.644-49.68c-0.996-1.545-2.641-2.672-3.984-3.992    c-1.184,1.514-2.584,2.907-3.51,4.565c-2.671,4.786-5.039,9.743-7.784,14.484c-0.685,1.183-2.345,1.8-3.556,2.678    c-0.714-1.368-2.044-2.743-2.031-4.104c0.044-4.978,0.534-9.95,0.859-14.924c0.352-5.382,2.272-9.887,6.662-13.35    c6.923-5.463,13.503-11.369,20.531-16.689c11.151-8.44,15.863-20.113,17.688-33.396c0.34-2.473,0.615-4.957,0.857-7.442    c0.868-8.917,11.39-15.583,19.281-11.545c2.409,1.233,4.59,5.154,4.811,8.004c0.639,8.264,0.229,16.608,0.229,24.921    c0,2.965,0,5.93,0,9.016c6.624,1.846,12.425,1.703,18.238-2.246c4.768-3.238,11.027-4.559,15.199-8.313    c4.159-3.742,8.133-4.118,12.913-3.54L482.463,436.095z"/>
		<path fill="#FFFFFF" d="M482.62,436.18c-7.226-3.019-7.193-3.016-6.563-11.347c0.376-4.968,0.24-10.013,1.104-14.888    c0.439-2.484,2.085-5.932,4.06-6.702c3.302-1.287,8.08,2.799,8.522,6.598c0.358,3.084,0.072,6.242,0.072,9.657    c6.44-0.83,5.233,4.383,6.9,8.565c0.487-1.416,0.832-2.903,1.501-4.228c0.682-1.352,1.567-3.492,2.564-3.611    c2.153-0.257,4.539,0.307,6.574,1.152c0.393,0.164-0.025,3.3-0.682,4.795c-2.985,6.79-8.391,10.014-15.754,10.018    c-2.826,0.002-5.652-0.066-8.467-0.099C482.463,436.095,482.62,436.18,482.62,436.18z"/>
		<path fill="#FFFFFF" d="M603.064,641.402c0.107-6.38,3.758-11.147,9.166-12.161c1.461-0.273,3.618-0.038,4.6,0.879    c5.07,4.737,10.278,9.435,14.651,14.788c5.71,6.991,2.828,14.085-5.912,15.895c-2.736,0.566-4.739,0.097-6.882-2.347    c-3.104-3.54-7.027-6.418-10.834-9.269C604.911,646.983,602.27,644.879,603.064,641.402z"/>
	</g>
	<path fill="#FFFFFF" d="M552.09,837c3.887-7.529,7.958-15.349,11.96-23.214c9.424-18.524,18.821-37.062,28.19-55.613   c1.347-2.666,2.702-5.363,3.668-8.179c2.772-8.077-3.688-18.539-12.162-20.05c-3.427-0.61-5.064,1.329-6.708,3.904   c-15.574,24.408-31.053,48.881-46.947,73.08c-7.313,11.135-15.488,21.737-26.349,29.783c-0.136,0.101-0.28,0.19-0.419,0.288H552.09   z"/>
	<path fill="#FFFFFF" d="M431.772,688.737c3.214-0.037,6.429-0.073,9.642-0.112c4.358-0.054,7.349-0.941,9.849-4.857   c4.669-7.312,10.896-12.874,20.499-14.319c0,3.806,0.47,7.487-0.121,10.989c-0.717,4.251,0.489,5.79,4.769,5.715   c10.802-0.189,21.606-0.144,32.41-0.191c0.984-0.004,1.97-0.001,3.376-0.001c-1.189,4.283-2.625,7.86-7.498,8.673   c-2.455,0.409-4.86,1.293-7.321,1.454c-8.609,0.565-14.007,5.754-19.211,11.986c-10.521,12.601-15.328,27.888-20.753,42.825   c-9.627,26.509-18.676,53.227-28.025,79.837c-0.119,0.339-0.233,0.662-0.344,0.978c-0.027,0.076-0.054,0.15-0.081,0.226   c-0.088,0.251-0.175,0.494-0.26,0.729c-0.027,0.074-0.054,0.149-0.08,0.223c-0.086,0.238-0.171,0.469-0.254,0.691   c-0.021,0.055-0.042,0.112-0.062,0.166c-0.207,0.554-0.406,1.062-0.602,1.524c-0.01,0.024-0.021,0.047-0.031,0.071   c-0.086,0.201-0.171,0.394-0.256,0.578c-0.018,0.04-0.036,0.079-0.055,0.117c-0.081,0.174-0.163,0.34-0.245,0.499   c-0.015,0.029-0.031,0.061-0.046,0.09c-0.068,0.129-0.136,0.252-0.205,0.372h31.669c0,0,0,0,0-0.001   c1.508-5.076,2.983-10.115,4.46-15.111c0.029-0.099,0.059-0.198,0.088-0.297c0.615-2.079,1.238-4.145,1.86-6.211   c0.281-0.934,0.557-1.872,0.84-2.804c0.907-2.979,1.829-5.946,2.777-8.906c10.964-34.233,29.266-64.699,48.875-94.479   c2.651-4.025,5.571-7.948,7.642-12.267c3.851-8.026,10.698-10.93,18.682-10.661c10.094,0.341,18.752-2.84,27.462-7.456   c10.98-5.819,22.247-11.214,34.829-12.993c1.578-0.223,4.041-1.605,4.203-2.725c0.266-1.828-0.441-4.688-1.788-5.665   c-2.426-1.759-5.541-3.009-8.523-3.476c-8.336-1.304-8.645-1.401-8.828-9.618c-0.009-0.408-0.03-0.806-0.062-1.195   c-0.011-0.137-0.03-0.266-0.044-0.399c-0.026-0.249-0.051-0.499-0.087-0.74c-0.023-0.162-0.056-0.316-0.084-0.474   c-0.036-0.204-0.07-0.41-0.114-0.609c-0.038-0.172-0.084-0.337-0.128-0.504c-0.045-0.175-0.088-0.352-0.139-0.521   c-0.053-0.176-0.114-0.345-0.173-0.516c-0.053-0.151-0.104-0.305-0.162-0.452c-0.068-0.177-0.145-0.347-0.221-0.518   c-0.06-0.133-0.117-0.266-0.181-0.395c-0.086-0.175-0.18-0.344-0.273-0.513c-0.064-0.115-0.128-0.23-0.196-0.343   c-0.104-0.172-0.216-0.338-0.329-0.503c-0.067-0.099-0.136-0.198-0.208-0.295c-0.123-0.168-0.253-0.33-0.387-0.489   c-0.071-0.085-0.143-0.17-0.217-0.252c-0.145-0.163-0.295-0.32-0.45-0.475c-0.071-0.07-0.145-0.141-0.219-0.209   c-0.167-0.157-0.34-0.31-0.519-0.456c-0.071-0.059-0.144-0.115-0.216-0.172c-0.191-0.149-0.388-0.295-0.592-0.435   c-0.068-0.046-0.138-0.091-0.207-0.136c-0.218-0.143-0.441-0.28-0.673-0.411c-0.061-0.034-0.124-0.067-0.186-0.101   c-0.248-0.135-0.501-0.266-0.765-0.388c-0.05-0.022-0.102-0.044-0.151-0.066c-0.282-0.127-0.57-0.249-0.87-0.362   c-0.03-0.012-0.062-0.021-0.093-0.033c-0.323-0.119-0.654-0.232-0.998-0.336c-3.084-0.439-6.149-0.863-9.188-1.271   c-0.687,0.005-1.368,0.04-2.046,0.093c-0.152,0.012-0.304,0.028-0.456,0.042c-0.548,0.052-1.093,0.118-1.635,0.201   c-0.142,0.021-0.283,0.04-0.425,0.063c-0.662,0.112-1.321,0.244-1.975,0.403c-0.073,0.018-0.146,0.041-0.22,0.06   c-0.573,0.145-1.143,0.311-1.709,0.492c-0.171,0.056-0.341,0.112-0.511,0.171c-0.534,0.183-1.065,0.383-1.594,0.6   c-0.106,0.044-0.215,0.083-0.322,0.128c-0.621,0.265-1.237,0.556-1.851,0.868c-0.147,0.075-0.293,0.157-0.439,0.235   c-0.479,0.254-0.955,0.522-1.428,0.807c-0.171,0.103-0.341,0.203-0.511,0.31c-0.6,0.376-1.197,0.767-1.787,1.191   c-8.091,5.818-16.901,9.942-26.894,11.041c-9.788,1.075-19.556,1.968-28.824-2.902c-5.097-2.678-10.012-1.777-14.339,2.004   c-14.924,13.045-33.247,19.133-51.587,25.16c-0.215,0.07-0.436,0.125-0.658,0.169c-0.048,0.009-0.097,0.014-0.145,0.021   c-0.186,0.031-0.373,0.054-0.563,0.066c-0.041,0.003-0.083,0.003-0.124,0.005c-0.209,0.009-0.421,0.007-0.637-0.008   c-0.022-0.001-0.044-0.003-0.067-0.004c-0.244-0.019-0.491-0.052-0.742-0.101c-12.086,9.314-18.516,14.012-23.26,17.154   c0.043-0.001,0.087-0.001,0.131-0.002C416.169,688.914,423.971,688.824,431.772,688.737z"/>
	<path fill="#FFFFFF" d="M422.92,819.973c9.97-26.396,19.955-52.788,29.84-79.217c1.332-3.562,2.395-7.273,3.1-11.007   c0.722-3.828-1.203-6.549-5.179-5.935c-3.278,0.507-6.9,1.688-9.402,3.747c-6.364,5.238-13.224,7.927-21.525,7.478   c-9.476-0.513-17.157,3.455-21.579,11.757c-11.863,22.271-23.309,44.767-34.8,67.234c-3.703,7.241-7.099,14.644-10.499,22.036   c-0.341,0.74-0.712,1.381-1.132,1.934h64.277c0.654-1.702,1.305-3.396,1.952-5.08C419.642,828.576,421.294,824.275,422.92,819.973z   "/>
	<path fill="#FFFFFF" d="M513.756,771.932c-5.982,18.283-12.138,36.512-17.986,54.838c-0.167,0.524-0.321,1.053-0.465,1.585"/>
	<path fill="#FFFFFF" d="M493.571,837c0.098-0.566,0.194-1.133,0.292-1.699c0.02-0.113,0.039-0.227,0.059-0.34   c0.062-0.365,0.129-0.729,0.193-1.094c0.037-0.209,0.074-0.418,0.112-0.626c0.062-0.332,0.127-0.663,0.191-0.994   c0.042-0.219,0.083-0.438,0.128-0.657c0.068-0.335,0.143-0.667,0.217-1c0.046-0.209,0.089-0.42,0.138-0.628   c0.083-0.36,0.177-0.717,0.269-1.074c0.045-0.178,0.086-0.356,0.135-0.533c0.144-0.532,0.298-1.061,0.465-1.585   c5.849-18.326,12.004-36.555,17.986-54.838c2.165-6.618,4.338-13.244,6.15-19.963c0.718-2.661,2.463-6.247-1.332-7.963   c-4.19-1.895-6.603,1.067-8.161,4.424c-4.612,9.932-9.481,19.776-13.472,29.96c-7.267,18.546-14.089,37.271-20.818,56.02   c-0.105,0.293-0.213,0.572-0.322,0.844c-0.028,0.07-0.058,0.139-0.086,0.208c-0.091,0.217-0.184,0.427-0.278,0.629   c-0.025,0.054-0.05,0.108-0.075,0.161c-0.127,0.262-0.258,0.513-0.396,0.749H493.571z"/>
	<path fill="#FFFFFF" d="M646.04,808.354c-6.169-20.423-14.968-39.431-29.474-55.464c-2.452-2.711-4.575-4.349-7.996-2.087   c-3.17,2.096-4.496,4.627-2.383,8.392c6.507,11.595,13.496,22.976,19.139,34.983c6.189,13.174,11.1,26.949,16.521,40.48   c0.223,0.557,0.188,1.223,0.224,2.342l12.367-0.26C651.663,827.35,648.904,817.835,646.04,808.354z"/>
</g>
</svg>