<?xml version="1.0" encoding="UTF-8" standalone="no"?>
<!-- Generator: Adobe Illustrator 21.0.2, SVG Export Plug-In . SVG Version: 6.00 Build 0)  -->

<svg
   xmlns:dc="http://purl.org/dc/elements/1.1/"
   xmlns:cc="http://creativecommons.org/ns#"
   xmlns:rdf="http://www.w3.org/1999/02/22-rdf-syntax-ns#"
   xmlns:svg="http://www.w3.org/2000/svg"
   xmlns="http://www.w3.org/2000/svg"
   xmlns:sodipodi="http://sodipodi.sourceforge.net/DTD/sodipodi-0.dtd"
   xmlns:inkscape="http://www.inkscape.org/namespaces/inkscape"
   version="1.1"
   id="Layer_1"
   x="0px"
   y="0px"
   viewBox="0 0 500 500"
   style="enable-background:new 0 0 500 500;"
   xml:space="preserve"
   inkscape:version="0.92.4 5da689c313, 2019-01-14"
   sodipodi:docname="print.svg"><metadata
     id="metadata43"><rdf:RDF><cc:Work
         rdf:about=""><dc:format>image/svg+xml</dc:format><dc:type
           rdf:resource="http://purl.org/dc/dcmitype/StillImage" /></cc:Work></rdf:RDF></metadata><defs
     id="defs41"><clipPath
       id="clipPath845"
       clipPathUnits="userSpaceOnUse"><path
         inkscape:connector-curvature="0"
         id="path843"
         d="M 0,164.951 H 164.917 V 0 H 0 Z" /></clipPath><clipPath
       id="clipPath922"
       clipPathUnits="userSpaceOnUse"><path
         inkscape:connector-curvature="0"
         id="path920"
         d="M 0,164.951 H 164.917 V 0 H 0 Z" /></clipPath></defs><sodipodi:namedview
     pagecolor="#ffffff"
     bordercolor="#666666"
     borderopacity="1"
     objecttolerance="10"
     gridtolerance="10"
     guidetolerance="10"
     inkscape:pageopacity="0"
     inkscape:pageshadow="2"
     inkscape:window-width="2560"
     inkscape:window-height="1376"
     id="namedview39"
     showgrid="false"
     inkscape:zoom="1.3350176"
     inkscape:cx="642.76203"
     inkscape:cy="204.24478"
     inkscape:window-x="0"
     inkscape:window-y="27"
     inkscape:window-maximized="1"
     inkscape:current-layer="g918" /><style
     type="text/css"
     id="style3">
	.st0{fill:#25A4F2;}
	.st1{fill:#221F3A;}
</style><g
     id="g5"
     style="fill:#e23838;fill-opacity:1"><path
       class="st0"
       d="M384.2,123.9L303,42.7l-81.2,81.2l81.2,81.2v-81.2C303,123.9,385.6,122.6,384.2,123.9z"
       id="path7"
       style="fill:#e23838;fill-opacity:1" /></g><g
     id="g9"
     style="fill:#f78200;fill-opacity:1"><path
       class="st0"
       d="M434.2,255.1V140.3H319.4v114.8l57.4-57.4C376.8,197.7,436.1,255.1,434.2,255.1z"
       id="path11"
       style="fill:#f78200;fill-opacity:1" /></g><g
     id="g13"
     style="fill:#ffb900;fill-opacity:1"><path
       class="st0"
       d="M376.8,383.3l81.2-81.2l-81.2-81.2l-81.2,81.2h81.2C376.8,302.1,378.1,384.6,376.8,383.3z"
       id="path15"
       style="fill:#ffb900;fill-opacity:1" /></g><g
     id="g17"
     style="fill:#5ebd3e;fill-opacity:1"><path
       class="st0"
       d="M245.6,433.3h114.8V318.4H245.6l57.4,57.4C303,375.9,245.6,435.2,245.6,433.3z"
       id="path19"
       style="fill:#5ebd3e;fill-opacity:1" /></g><g
     id="g21"
     style="fill:#00c0ff;fill-opacity:0.98031497"><path
       class="st0"
       d="M117.4,375.9l81.2,81.2l81.2-81.2l-81.2-81.2v81.2C198.7,375.9,116.1,377.2,117.4,375.9z"
       id="path23"
       style="fill:#00c0ff;fill-opacity:0.98031497" /></g><g
     id="g25"
     style="fill:#2e6fcc;fill-opacity:1"><path
       class="st0"
       d="M67.4,244.7v114.8h114.9V244.7l-57.4,57.4C124.9,302.1,65.5,244.7,67.4,244.7z"
       id="path27"
       style="fill:#2e6fcc;fill-opacity:1" /></g><g
     id="g29"
     style="fill:#973999;fill-opacity:1"><path
       class="st0"
       d="M124.9,116.5l-81.2,81.2l81.2,81.2l81.2-81.2h-81.2C124.9,197.7,123.5,115.2,124.9,116.5z"
       id="path31"
       style="fill:#973999;fill-opacity:1" /></g><g
     id="g33"
     style="fill:#000000;fill-opacity:1"><g
       id="g35"
       style="fill:#000000;fill-opacity:1"><path
         class="st1"
         d="M256.1,66.5H141.2v114.9h114.8l-57.4-57.4C198.6,123.9,256.1,64.6,256.1,66.5z"
         id="path37"
         style="fill:#000000;fill-opacity:1" /></g></g><g
     transform="matrix(2.8006818,0,0,-2.813994,20.13926,481.94329)"
     inkscape:label="60mm_width"
     id="g914"><g
       id="g916"><g
         clip-path="url(#clipPath922)"
         id="g918"><g
           transform="translate(37.2436,138.2743)"
           id="g924"><path
             inkscape:connector-curvature="0"
             id="path926"
             style="fill:none;stroke:#d8d9d9;stroke-width:0.21600001;stroke-linecap:butt;stroke-linejoin:miter;stroke-miterlimit:22.9260006;stroke-dasharray:none;stroke-opacity:1"
             d="m 0,0 v 15.633 h 46.643 c 0.269,0.018 0.539,0.017 0.805,0 H 52.71 L 63.753,26.677 96.716,-6.286 c 0.205,-0.179 0.396,-0.371 0.573,-0.573 l 3.742,-3.743 h 15.598 v -46.607 c 0.017,-0.27 0.017,-0.538 0,-0.805 v -5.297 l 11.044,-11.044 -32.976,-32.975 c -0.172,-0.196 -0.356,-0.38 -0.55,-0.55 l -3.753,-3.753 v -15.598 H 43.787 c -0.27,-0.017 -0.539,-0.017 -0.805,0 h -5.297 l -11.044,-11.044 -32.975,32.976 c -0.196,0.173 -0.38,0.356 -0.55,0.55 l -3.753,3.753 h -15.598 v 46.607 c -0.018,0.27 -0.017,0.539 0,0.806 v 5.332 l -11.008,11.008 32.965,32.966 c 0.178,0.202 0.368,0.392 0.568,0.567 z" /></g><g
           transform="translate(129.8622,127.2663)"
           id="g928" /></g></g></g></svg>