<?xml version="1.0" encoding="UTF-8" standalone="no"?>
<svg
  xmlns:dc="http://purl.org/dc/elements/1.1/"
  xmlns:cc="http://creativecommons.org/ns#"
  xmlns:rdf="http://www.w3.org/1999/02/22-rdf-syntax-ns#"
  xmlns:svg="http://www.w3.org/2000/svg"
  xmlns="http://www.w3.org/2000/svg"
  id="svg28"
  viewBox="0 0 94.931999 16.891001"
  version="1.1"
  height="16.891001mm"
  width="94.931999mm">
  <metadata id="metadata34">
    <rdf:RDF>
      <cc:Work rdf:about="">
        <dc:format>image/svg+xml</dc:format>
        <dc:type rdf:resource="http://purl.org/dc/dcmitype/StillImage"/>
        <dc:title></dc:title>
      </cc:Work>
    </rdf:RDF>
  </metadata>
  <style id="style3" type="text/css">
    .black {
      fill: #000000;
      stroke-width: 0.26458001;
    }
    .blue {
      fill: #557bde;
      stroke-width: 0.26458001;
    }
    .orange {
      fill: #f58613;
      stroke-width: 0.35038862;
    }
  </style>
  <path
    class="black"
    d="M 9.779,5.842 C 8.8646,5.0292 7.0104,4.445 5.1308,4.445 c -2.286,0 -4.699,0.7874 -4.699,3.4798 0,2.3876 1.4732,2.8956 4.5212,3.81 1.6256,0.4826 2.1844,0.762 2.1844,1.4986 0,0.9906 -1.1176,1.2954 -2.0574,1.2954 -0.9144,0 -2.286,-0.381 -3.6068,-1.651 L 0,14.6558 c 1.0414,1.4732 3.0988,2.2352 5.207,2.2352 2.9972,0 4.9022,-1.6002 4.9022,-3.6576 0,-2.6924 -1.6764,-3.2004 -4.191,-3.9878 C 4.191,8.7122 3.4036,8.6614 3.4036,7.9248 c 0,-1.0922 1.4478,-1.143 1.8542,-1.143 1.143,0 2.3114,0.5334 3.2258,1.1176 z"/>
  <path
    class="black"
    d="m 14.561,10.668 c 0,-1.9558 1.1176,-3.6322 3.0734,-3.6322 1.4478,0 2.4384,0.5588 2.9972,1.4224 L 22.7398,6.7564 C 21.673,5.3086 19.9204,4.445 17.6344,4.445 c -3.9116,0 -6.2738,2.667 -6.2738,6.35 0,3.683 2.3368,6.096 6.2738,6.096 2.3114,0 4.064,-0.8636 5.1054,-2.3114 l -2.1336,-1.7272 c -0.5588,0.8636 -1.5494,1.4224 -2.9718,1.4224 -1.9558,0 -3.0734,-1.6764 -3.0734,-3.6068 z"/>
  <path
    class="black"
    d="m 27.67,10.668 c 0,-1.8034 0.9906,-3.6322 2.794,-3.6322 1.1938,0 1.8034,0.5334 1.8034,2.8702 v 6.604 h 3.2004 V 9.525 c 0,-4.0894 -2.0066,-5.08 -4.1402,-5.08 -1.4732,0 -2.921,0.7366 -3.6576,2.5146 V 0 H 24.4696 V 16.51 H 27.67 Z"/>
  <path
    class="black"
    d="m 37.207,10.668 c 0,3.683 2.3368,6.223 6.2738,6.223 3.9624,0 6.2738,-2.54 6.2738,-6.223 0,-3.683 -2.3622,-6.223 -6.2738,-6.223 -3.9116,0 -6.2738,2.54 -6.2738,6.223 z m 3.2004,0 c 0,-1.9558 1.1176,-3.6322 3.0734,-3.6322 1.9812,0 3.0734,1.6764 3.0734,3.6322 0,1.9304 -1.0922,3.6068 -3.0734,3.6068 -1.9558,0 -3.0734,-1.6764 -3.0734,-3.6068 z"/>
  <path
    class="black"
    d="m 50.998,10.668 c 0,3.683 2.3368,6.223 6.2738,6.223 3.9624,0 6.2738,-2.54 6.2738,-6.223 0,-3.683 -2.3622,-6.223 -6.2738,-6.223 -3.9116,0 -6.2738,2.54 -6.2738,6.223 z m 3.2004,0 c 0,-1.9558 1.1176,-3.6322 3.0734,-3.6322 1.9812,0 3.0734,1.6764 3.0734,3.6322 0,1.9304 -1.0922,3.6068 -3.0734,3.6068 -1.9558,0 -3.0734,-1.6764 -3.0734,-3.6068 z"/>
  <path class="black" d="m 68.498,3e-4 h -3.2004 v 16.51 h 3.2004 z"/>
  <path class="black" d="m 69.993,14.732 c 0,1.0922 0.8382,1.905 1.9304,1.905 1.0922,0 1.9304,-0.8128 1.9304,-1.905 0,-1.0922 -0.8382,-1.9558 -1.9304,-1.9558 -1.0922,0 -1.9304,0.8636 -1.9304,1.9558 z"/>
  <path class="blue" d="M 78.569,10.008 V 0 h -3.2004 v 16.51 h 3.2004 v -2.9972 l 1.4224,-1.524 3.2258,4.5212 h 3.8608 l -5.2324,-6.477 4.7752,-5.207 h -3.683 z"/>
  <path
    class="orange"
    d="m 87.312,4.826 v 2.3622 h 1.7018 v 5.9436 c 0,2.4638 0.7874,3.7592 3.4798,3.7592 0.9398,0 1.9304,-0.2794 2.4384,-0.4572 l -0.4064,-2.4384 c -0.127,0.0508 -0.9652,0.1778 -1.2954,0.1778 -1.1684,0 -1.016,-0.5842 -1.016,-1.7018 V 7.1882 h 2.3114 V 4.826 H 92.2142 V 1.778 h -3.2004 v 3.048 z"/>
</svg>
